<mxfile host="app.diagrams.net" modified="2023-02-10T11:44:42.270Z" agent="5.0 (Windows NT 10.0; Win64; x64) AppleWebKit/537.36 (KHTML, like Gecko) Chrome/110.0.0.0 Safari/537.36" etag="S2lbUFUpZJgL5uS--F-m" version="20.8.19" type="github" pages="6">
  <diagram name="Doctors list" id="iNg3_k1wbIgd62mTTB8b">
    <mxGraphModel dx="1221" dy="783" grid="1" gridSize="10" guides="1" tooltips="1" connect="1" arrows="1" fold="1" page="1" pageScale="1" pageWidth="827" pageHeight="1169" math="0" shadow="0">
      <root>
        <mxCell id="oVqWi5KsJc3UrHnTr8XR-0" />
        <mxCell id="oVqWi5KsJc3UrHnTr8XR-1" parent="oVqWi5KsJc3UrHnTr8XR-0" />
        <mxCell id="oVqWi5KsJc3UrHnTr8XR-2" value="Doctors" style="text;strokeColor=none;fillColor=none;align=center;verticalAlign=middle;whiteSpace=wrap;rounded=0;fontSize=24;fontStyle=1;labelBackgroundColor=none;fontFamily=Helvetica;swimlaneLine=0;shadow=0;sketch=1;curveFitting=1;jiggle=2;" parent="oVqWi5KsJc3UrHnTr8XR-1" vertex="1">
          <mxGeometry x="40" y="40" width="180" height="30" as="geometry" />
        </mxCell>
        <mxCell id="oVqWi5KsJc3UrHnTr8XR-3" value="Patients" style="text;strokeColor=none;fillColor=none;align=center;verticalAlign=middle;whiteSpace=wrap;rounded=0;fontSize=24;fontStyle=0;labelBackgroundColor=none;fontFamily=Helvetica;swimlaneLine=0;shadow=0;sketch=1;curveFitting=1;jiggle=2;" parent="oVqWi5KsJc3UrHnTr8XR-1" vertex="1">
          <mxGeometry x="270" y="40" width="180" height="30" as="geometry" />
        </mxCell>
        <mxCell id="oVqWi5KsJc3UrHnTr8XR-4" value="Assets" style="childLayout=tableLayout;recursiveResize=0;shadow=0;fontSize=24;labelBackgroundColor=none;rounded=0;fontFamily=Helvetica;swimlaneLine=0;sketch=1;curveFitting=1;jiggle=2;fontStyle=4" parent="oVqWi5KsJc3UrHnTr8XR-1" vertex="1">
          <mxGeometry x="14" y="110" width="800" height="254" as="geometry" />
        </mxCell>
        <mxCell id="oVqWi5KsJc3UrHnTr8XR-5" value="" style="shape=tableRow;horizontal=0;startSize=0;swimlaneHead=0;swimlaneBody=0;top=0;left=0;bottom=0;right=0;dropTarget=0;collapsible=0;recursiveResize=0;expand=0;fontStyle=0;fontSize=24;labelBackgroundColor=none;rounded=0;fontFamily=Helvetica;swimlaneLine=0;shadow=0;sketch=1;curveFitting=1;jiggle=2;" parent="oVqWi5KsJc3UrHnTr8XR-4" vertex="1">
          <mxGeometry width="800" height="80" as="geometry" />
        </mxCell>
        <mxCell id="oVqWi5KsJc3UrHnTr8XR-6" value="Name" style="connectable=0;recursiveResize=0;align=center;fontStyle=1;fontSize=24;labelBackgroundColor=none;rounded=0;fontFamily=Helvetica;swimlaneLine=0;shadow=0;sketch=1;curveFitting=1;jiggle=2;" parent="oVqWi5KsJc3UrHnTr8XR-5" vertex="1">
          <mxGeometry width="220" height="80" as="geometry">
            <mxRectangle width="220" height="80" as="alternateBounds" />
          </mxGeometry>
        </mxCell>
        <mxCell id="oVqWi5KsJc3UrHnTr8XR-7" value="Grade" style="connectable=0;recursiveResize=0;align=center;fontStyle=1;fontSize=24;labelBackgroundColor=none;labelBorderColor=none;rounded=0;fontFamily=Helvetica;swimlaneLine=0;shadow=0;sketch=1;curveFitting=1;jiggle=2;" parent="oVqWi5KsJc3UrHnTr8XR-5" vertex="1">
          <mxGeometry x="220" width="126" height="80" as="geometry">
            <mxRectangle width="126" height="80" as="alternateBounds" />
          </mxGeometry>
        </mxCell>
        <mxCell id="oVqWi5KsJc3UrHnTr8XR-8" value="Specialization" style="connectable=0;recursiveResize=0;align=center;fontStyle=1;fontSize=24;labelBackgroundColor=none;rounded=0;fontFamily=Helvetica;swimlaneLine=0;shadow=0;sketch=1;curveFitting=1;jiggle=2;" parent="oVqWi5KsJc3UrHnTr8XR-5" vertex="1">
          <mxGeometry x="346" width="240" height="80" as="geometry">
            <mxRectangle width="240" height="80" as="alternateBounds" />
          </mxGeometry>
        </mxCell>
        <mxCell id="oVqWi5KsJc3UrHnTr8XR-9" value="Count&#xa;of patients" style="connectable=0;recursiveResize=0;align=center;fontStyle=1;fontSize=24;labelBackgroundColor=none;rounded=0;fontFamily=Helvetica;swimlaneLine=0;shadow=0;sketch=1;curveFitting=1;jiggle=2;" parent="oVqWi5KsJc3UrHnTr8XR-5" vertex="1">
          <mxGeometry x="586" width="214" height="80" as="geometry">
            <mxRectangle width="214" height="80" as="alternateBounds" />
          </mxGeometry>
        </mxCell>
        <mxCell id="oVqWi5KsJc3UrHnTr8XR-10" value="" style="shape=tableRow;horizontal=0;startSize=0;swimlaneHead=0;swimlaneBody=0;top=0;left=0;bottom=0;right=0;dropTarget=0;collapsible=0;recursiveResize=0;expand=0;fontStyle=0;fontSize=24;labelBackgroundColor=none;rounded=0;fontFamily=Helvetica;swimlaneLine=0;shadow=0;sketch=1;curveFitting=1;jiggle=2;" parent="oVqWi5KsJc3UrHnTr8XR-4" vertex="1">
          <mxGeometry y="80" width="800" height="58" as="geometry" />
        </mxCell>
        <mxCell id="oVqWi5KsJc3UrHnTr8XR-11" value="Joth Watson" style="connectable=0;recursiveResize=0;align=center;whiteSpace=wrap;fontSize=24;labelBackgroundColor=none;rounded=0;fontFamily=Helvetica;swimlaneLine=0;shadow=0;sketch=1;curveFitting=1;jiggle=2;fontStyle=4" parent="oVqWi5KsJc3UrHnTr8XR-10" vertex="1">
          <mxGeometry width="220" height="58" as="geometry">
            <mxRectangle width="220" height="58" as="alternateBounds" />
          </mxGeometry>
        </mxCell>
        <mxCell id="oVqWi5KsJc3UrHnTr8XR-12" value="BM" style="connectable=0;recursiveResize=0;align=center;whiteSpace=wrap;fontSize=24;labelBackgroundColor=none;rounded=0;fontFamily=Helvetica;swimlaneLine=0;shadow=0;sketch=1;curveFitting=1;jiggle=2;" parent="oVqWi5KsJc3UrHnTr8XR-10" vertex="1">
          <mxGeometry x="220" width="126" height="58" as="geometry">
            <mxRectangle width="126" height="58" as="alternateBounds" />
          </mxGeometry>
        </mxCell>
        <mxCell id="oVqWi5KsJc3UrHnTr8XR-13" value="Combat medic" style="connectable=0;recursiveResize=0;align=center;whiteSpace=wrap;fontSize=24;labelBackgroundColor=none;rounded=0;fontFamily=Helvetica;swimlaneLine=0;shadow=0;sketch=1;curveFitting=1;jiggle=2;" parent="oVqWi5KsJc3UrHnTr8XR-10" vertex="1">
          <mxGeometry x="346" width="240" height="58" as="geometry">
            <mxRectangle width="240" height="58" as="alternateBounds" />
          </mxGeometry>
        </mxCell>
        <mxCell id="oVqWi5KsJc3UrHnTr8XR-14" value="2" style="connectable=0;recursiveResize=0;align=center;whiteSpace=wrap;fontSize=24;labelBackgroundColor=none;rounded=0;fontFamily=Helvetica;swimlaneLine=0;shadow=0;sketch=1;curveFitting=1;jiggle=2;fontStyle=0" parent="oVqWi5KsJc3UrHnTr8XR-10" vertex="1">
          <mxGeometry x="586" width="214" height="58" as="geometry">
            <mxRectangle width="214" height="58" as="alternateBounds" />
          </mxGeometry>
        </mxCell>
        <mxCell id="oVqWi5KsJc3UrHnTr8XR-15" value="" style="shape=tableRow;horizontal=0;startSize=0;swimlaneHead=0;swimlaneBody=0;top=0;left=0;bottom=0;right=0;dropTarget=0;collapsible=0;recursiveResize=0;expand=0;fontStyle=5;fontSize=24;labelBackgroundColor=none;rounded=0;fontFamily=Helvetica;swimlaneLine=0;shadow=0;sketch=1;curveFitting=1;jiggle=2;" parent="oVqWi5KsJc3UrHnTr8XR-4" vertex="1">
          <mxGeometry y="138" width="800" height="56" as="geometry" />
        </mxCell>
        <mxCell id="oVqWi5KsJc3UrHnTr8XR-16" value="Stephen Strange" style="connectable=0;recursiveResize=0;whiteSpace=wrap;fontSize=24;labelBackgroundColor=none;rounded=0;fontFamily=Helvetica;swimlaneLine=0;shadow=0;sketch=1;curveFitting=1;jiggle=2;fontStyle=4" parent="oVqWi5KsJc3UrHnTr8XR-15" vertex="1">
          <mxGeometry width="220" height="56" as="geometry">
            <mxRectangle width="220" height="56" as="alternateBounds" />
          </mxGeometry>
        </mxCell>
        <mxCell id="oVqWi5KsJc3UrHnTr8XR-17" value="MS" style="connectable=0;recursiveResize=0;whiteSpace=wrap;fontSize=24;labelBackgroundColor=none;rounded=0;fontFamily=Helvetica;swimlaneLine=0;shadow=0;sketch=1;curveFitting=1;jiggle=2;" parent="oVqWi5KsJc3UrHnTr8XR-15" vertex="1">
          <mxGeometry x="220" width="126" height="56" as="geometry">
            <mxRectangle width="126" height="56" as="alternateBounds" />
          </mxGeometry>
        </mxCell>
        <mxCell id="oVqWi5KsJc3UrHnTr8XR-18" value="Neirosurgeon" style="connectable=0;recursiveResize=0;whiteSpace=wrap;fontSize=24;labelBackgroundColor=none;rounded=0;fontFamily=Helvetica;swimlaneLine=0;shadow=0;sketch=1;curveFitting=1;jiggle=2;" parent="oVqWi5KsJc3UrHnTr8XR-15" vertex="1">
          <mxGeometry x="346" width="240" height="56" as="geometry">
            <mxRectangle width="240" height="56" as="alternateBounds" />
          </mxGeometry>
        </mxCell>
        <mxCell id="oVqWi5KsJc3UrHnTr8XR-19" value="2" style="connectable=0;recursiveResize=0;whiteSpace=wrap;fontSize=24;labelBackgroundColor=none;rounded=0;fontFamily=Helvetica;swimlaneLine=0;shadow=0;sketch=1;curveFitting=1;jiggle=2;fontStyle=0" parent="oVqWi5KsJc3UrHnTr8XR-15" vertex="1">
          <mxGeometry x="586" width="214" height="56" as="geometry">
            <mxRectangle width="214" height="56" as="alternateBounds" />
          </mxGeometry>
        </mxCell>
        <mxCell id="oVqWi5KsJc3UrHnTr8XR-20" value="" style="shape=tableRow;horizontal=0;startSize=0;swimlaneHead=0;swimlaneBody=0;top=0;left=0;bottom=0;right=0;dropTarget=0;collapsible=0;recursiveResize=0;expand=0;fontStyle=0;fontSize=24;labelBackgroundColor=none;rounded=0;fontFamily=Helvetica;swimlaneLine=0;shadow=0;sketch=1;curveFitting=1;jiggle=2;" parent="oVqWi5KsJc3UrHnTr8XR-4" vertex="1">
          <mxGeometry y="194" width="800" height="60" as="geometry" />
        </mxCell>
        <mxCell id="oVqWi5KsJc3UrHnTr8XR-21" value="Greg House" style="connectable=0;recursiveResize=0;fontStyle=4;align=center;whiteSpace=wrap;fontSize=24;labelBackgroundColor=none;rounded=0;fontFamily=Helvetica;swimlaneLine=0;shadow=0;sketch=1;curveFitting=1;jiggle=2;" parent="oVqWi5KsJc3UrHnTr8XR-20" vertex="1">
          <mxGeometry width="220" height="60" as="geometry">
            <mxRectangle width="220" height="60" as="alternateBounds" />
          </mxGeometry>
        </mxCell>
        <mxCell id="oVqWi5KsJc3UrHnTr8XR-22" value="MD" style="connectable=0;recursiveResize=0;fontStyle=0;align=center;whiteSpace=wrap;fontSize=24;labelBackgroundColor=none;rounded=0;fontFamily=Helvetica;swimlaneLine=0;shadow=0;sketch=1;curveFitting=1;jiggle=2;" parent="oVqWi5KsJc3UrHnTr8XR-20" vertex="1">
          <mxGeometry x="220" width="126" height="60" as="geometry">
            <mxRectangle width="126" height="60" as="alternateBounds" />
          </mxGeometry>
        </mxCell>
        <mxCell id="oVqWi5KsJc3UrHnTr8XR-23" value="Nephrologist" style="connectable=0;recursiveResize=0;fontStyle=0;align=center;whiteSpace=wrap;fontSize=24;labelBackgroundColor=none;rounded=0;fontFamily=Helvetica;swimlaneLine=0;shadow=0;sketch=1;curveFitting=1;jiggle=2;" parent="oVqWi5KsJc3UrHnTr8XR-20" vertex="1">
          <mxGeometry x="346" width="240" height="60" as="geometry">
            <mxRectangle width="240" height="60" as="alternateBounds" />
          </mxGeometry>
        </mxCell>
        <mxCell id="oVqWi5KsJc3UrHnTr8XR-24" value="1" style="connectable=0;recursiveResize=0;fontStyle=0;align=center;whiteSpace=wrap;fontSize=24;labelBackgroundColor=none;rounded=0;fontFamily=Helvetica;swimlaneLine=0;shadow=0;sketch=1;curveFitting=1;jiggle=2;" parent="oVqWi5KsJc3UrHnTr8XR-20" vertex="1">
          <mxGeometry x="586" width="214" height="60" as="geometry">
            <mxRectangle width="214" height="60" as="alternateBounds" />
          </mxGeometry>
        </mxCell>
        <mxCell id="M8HDsWw1fMdAQXV8gxl8-0" value="ADD" style="strokeWidth=1;shadow=0;dashed=0;align=center;html=1;shape=mxgraph.mockup.buttons.button;strokeColor=#666666;fontColor=default;mainText=;buttonStyle=round;fontSize=30;fontStyle=1;fillColor=#000000;whiteSpace=wrap;rounded=0;labelBackgroundColor=none;labelBorderColor=none;sketch=1;hachureGap=4;jiggle=2;curveFitting=1;fontFamily=Helvetica;fillStyle=hachure;" parent="oVqWi5KsJc3UrHnTr8XR-1" vertex="1">
          <mxGeometry x="660" y="410" width="150" height="50" as="geometry" />
        </mxCell>
      </root>
    </mxGraphModel>
  </diagram>
  <diagram name="Doctor" id="-o0rRjjSZjT6qEU89VmB">
    <mxGraphModel dx="1434" dy="796" grid="1" gridSize="10" guides="1" tooltips="1" connect="1" arrows="1" fold="1" page="1" pageScale="1" pageWidth="827" pageHeight="1169" math="0" shadow="0">
      <root>
        <mxCell id="0" />
        <mxCell id="1" parent="0" />
        <mxCell id="106Unu_I3FGXwjGpmKto-9" value="Doctors" style="text;strokeColor=none;fillColor=none;align=center;verticalAlign=middle;whiteSpace=wrap;rounded=0;fontSize=24;fontStyle=0;labelBackgroundColor=none;fontFamily=Helvetica;swimlaneLine=0;shadow=0;sketch=1;curveFitting=1;jiggle=2;fontColor=#777777;" parent="1" vertex="1">
          <mxGeometry x="40" y="40" width="180" height="30" as="geometry" />
        </mxCell>
        <mxCell id="106Unu_I3FGXwjGpmKto-11" value="List of patients" style="text;strokeColor=none;fillColor=none;align=center;verticalAlign=middle;whiteSpace=wrap;rounded=0;fontSize=24;fontStyle=0;labelBackgroundColor=none;fontFamily=Helvetica;swimlaneLine=0;shadow=0;sketch=1;curveFitting=1;jiggle=2;fontColor=#000000;" parent="1" vertex="1">
          <mxGeometry x="60" y="585" width="180" height="30" as="geometry" />
        </mxCell>
        <mxCell id="6KdY4Ti95zejLEQpb8By-1" value="" style="verticalLabelPosition=bottom;shadow=0;dashed=0;align=center;html=1;verticalAlign=top;strokeWidth=1;shape=mxgraph.mockup.containers.userMale;strokeColor=#666666;strokeColor2=#008cff;rounded=0;labelBorderColor=none;sketch=1;hachureGap=4;jiggle=2;curveFitting=1;fontFamily=Helvetica;fontSize=20;fontColor=#000000;" parent="1" vertex="1">
          <mxGeometry x="70" y="100" width="100" height="100" as="geometry" />
        </mxCell>
        <mxCell id="6KdY4Ti95zejLEQpb8By-2" value="&lt;font style=&quot;font-size: 40px;&quot;&gt;John Watson&lt;/font&gt;" style="text;html=1;strokeColor=none;fillColor=none;align=center;verticalAlign=middle;whiteSpace=wrap;rounded=0;fontSize=19;fontFamily=Helvetica;fontColor=#000000;fontStyle=1" parent="1" vertex="1">
          <mxGeometry x="220" y="130" width="400" height="30" as="geometry" />
        </mxCell>
        <mxCell id="rxgpzha8HXijRtfz_eaI-3" value="" style="shape=table;startSize=0;container=1;collapsible=0;childLayout=tableLayout;rounded=0;shadow=0;labelBorderColor=none;sketch=1;hachureGap=4;jiggle=2;curveFitting=1;fontFamily=Helvetica;fontSize=20;fontColor=#000000;html=0;" parent="1" vertex="1">
          <mxGeometry x="70" y="230" width="680" height="240" as="geometry" />
        </mxCell>
        <mxCell id="8pPM4P5UZE39nHesD90V-1" style="shape=tableRow;horizontal=0;startSize=0;swimlaneHead=0;swimlaneBody=0;strokeColor=inherit;top=0;left=0;bottom=0;right=0;collapsible=0;dropTarget=0;fillColor=none;points=[[0,0.5],[1,0.5]];portConstraint=eastwest;rounded=0;shadow=0;labelBorderColor=none;sketch=1;hachureGap=4;jiggle=2;curveFitting=1;fontFamily=Helvetica;fontSize=20;fontColor=#000000;html=0;" parent="rxgpzha8HXijRtfz_eaI-3" vertex="1">
          <mxGeometry width="680" height="40" as="geometry" />
        </mxCell>
        <mxCell id="8pPM4P5UZE39nHesD90V-2" value="First Name" style="shape=partialRectangle;html=1;whiteSpace=wrap;connectable=0;strokeColor=inherit;overflow=hidden;fillColor=none;top=0;left=0;bottom=0;right=0;pointerEvents=1;rounded=0;shadow=0;labelBorderColor=none;sketch=1;hachureGap=4;jiggle=2;curveFitting=1;fontFamily=Helvetica;fontSize=20;fontColor=#000000;" parent="8pPM4P5UZE39nHesD90V-1" vertex="1">
          <mxGeometry width="290" height="40" as="geometry">
            <mxRectangle width="290" height="40" as="alternateBounds" />
          </mxGeometry>
        </mxCell>
        <mxCell id="8pPM4P5UZE39nHesD90V-3" value="John" style="shape=partialRectangle;html=1;whiteSpace=wrap;connectable=0;strokeColor=inherit;overflow=hidden;fillColor=none;top=0;left=0;bottom=0;right=0;pointerEvents=1;rounded=0;shadow=0;labelBorderColor=none;sketch=1;hachureGap=4;jiggle=2;curveFitting=1;fontFamily=Helvetica;fontSize=20;fontColor=#000000;" parent="8pPM4P5UZE39nHesD90V-1" vertex="1">
          <mxGeometry x="290" width="390" height="40" as="geometry">
            <mxRectangle width="390" height="40" as="alternateBounds" />
          </mxGeometry>
        </mxCell>
        <mxCell id="8pPM4P5UZE39nHesD90V-4" style="shape=tableRow;horizontal=0;startSize=0;swimlaneHead=0;swimlaneBody=0;strokeColor=inherit;top=0;left=0;bottom=0;right=0;collapsible=0;dropTarget=0;fillColor=none;points=[[0,0.5],[1,0.5]];portConstraint=eastwest;rounded=0;shadow=0;labelBorderColor=none;sketch=1;hachureGap=4;jiggle=2;curveFitting=1;fontFamily=Helvetica;fontSize=20;fontColor=#000000;html=0;" parent="rxgpzha8HXijRtfz_eaI-3" vertex="1">
          <mxGeometry y="40" width="680" height="40" as="geometry" />
        </mxCell>
        <mxCell id="8pPM4P5UZE39nHesD90V-5" value="Last Name" style="shape=partialRectangle;html=1;whiteSpace=wrap;connectable=0;strokeColor=inherit;overflow=hidden;fillColor=none;top=0;left=0;bottom=0;right=0;pointerEvents=1;rounded=0;shadow=0;labelBorderColor=none;sketch=1;hachureGap=4;jiggle=2;curveFitting=1;fontFamily=Helvetica;fontSize=20;fontColor=#000000;" parent="8pPM4P5UZE39nHesD90V-4" vertex="1">
          <mxGeometry width="290" height="40" as="geometry">
            <mxRectangle width="290" height="40" as="alternateBounds" />
          </mxGeometry>
        </mxCell>
        <mxCell id="8pPM4P5UZE39nHesD90V-6" value="Watson" style="shape=partialRectangle;html=1;whiteSpace=wrap;connectable=0;strokeColor=inherit;overflow=hidden;fillColor=none;top=0;left=0;bottom=0;right=0;pointerEvents=1;rounded=0;shadow=0;labelBorderColor=none;sketch=1;hachureGap=4;jiggle=2;curveFitting=1;fontFamily=Helvetica;fontSize=20;fontColor=#000000;" parent="8pPM4P5UZE39nHesD90V-4" vertex="1">
          <mxGeometry x="290" width="390" height="40" as="geometry">
            <mxRectangle width="390" height="40" as="alternateBounds" />
          </mxGeometry>
        </mxCell>
        <mxCell id="rxgpzha8HXijRtfz_eaI-4" value="" style="shape=tableRow;horizontal=0;startSize=0;swimlaneHead=0;swimlaneBody=0;strokeColor=inherit;top=0;left=0;bottom=0;right=0;collapsible=0;dropTarget=0;fillColor=none;points=[[0,0.5],[1,0.5]];portConstraint=eastwest;rounded=0;shadow=0;labelBorderColor=none;sketch=1;hachureGap=4;jiggle=2;curveFitting=1;fontFamily=Helvetica;fontSize=20;fontColor=#000000;html=0;" parent="rxgpzha8HXijRtfz_eaI-3" vertex="1">
          <mxGeometry y="80" width="680" height="40" as="geometry" />
        </mxCell>
        <mxCell id="rxgpzha8HXijRtfz_eaI-5" value="Grade" style="shape=partialRectangle;html=1;whiteSpace=wrap;connectable=0;strokeColor=inherit;overflow=hidden;fillColor=none;top=0;left=0;bottom=0;right=0;pointerEvents=1;rounded=0;shadow=0;labelBorderColor=none;sketch=1;hachureGap=4;jiggle=2;curveFitting=1;fontFamily=Helvetica;fontSize=20;fontColor=#000000;" parent="rxgpzha8HXijRtfz_eaI-4" vertex="1">
          <mxGeometry width="290" height="40" as="geometry">
            <mxRectangle width="290" height="40" as="alternateBounds" />
          </mxGeometry>
        </mxCell>
        <mxCell id="rxgpzha8HXijRtfz_eaI-6" value="Bachelor of Medicine" style="shape=partialRectangle;html=1;whiteSpace=wrap;connectable=0;strokeColor=inherit;overflow=hidden;fillColor=none;top=0;left=0;bottom=0;right=0;pointerEvents=1;rounded=0;shadow=0;labelBorderColor=none;sketch=1;hachureGap=4;jiggle=2;curveFitting=1;fontFamily=Helvetica;fontSize=20;fontColor=#000000;" parent="rxgpzha8HXijRtfz_eaI-4" vertex="1">
          <mxGeometry x="290" width="390" height="40" as="geometry">
            <mxRectangle width="390" height="40" as="alternateBounds" />
          </mxGeometry>
        </mxCell>
        <mxCell id="rxgpzha8HXijRtfz_eaI-7" value="" style="shape=tableRow;horizontal=0;startSize=0;swimlaneHead=0;swimlaneBody=0;strokeColor=inherit;top=0;left=0;bottom=0;right=0;collapsible=0;dropTarget=0;fillColor=none;points=[[0,0.5],[1,0.5]];portConstraint=eastwest;rounded=0;shadow=0;labelBorderColor=none;sketch=1;hachureGap=4;jiggle=2;curveFitting=1;fontFamily=Helvetica;fontSize=20;fontColor=#000000;html=0;" parent="rxgpzha8HXijRtfz_eaI-3" vertex="1">
          <mxGeometry y="120" width="680" height="40" as="geometry" />
        </mxCell>
        <mxCell id="rxgpzha8HXijRtfz_eaI-8" value="Work experience since" style="shape=partialRectangle;html=1;whiteSpace=wrap;connectable=0;strokeColor=inherit;overflow=hidden;fillColor=none;top=0;left=0;bottom=0;right=0;pointerEvents=1;rounded=0;shadow=0;labelBorderColor=none;sketch=1;hachureGap=4;jiggle=2;curveFitting=1;fontFamily=Helvetica;fontSize=20;fontColor=#000000;" parent="rxgpzha8HXijRtfz_eaI-7" vertex="1">
          <mxGeometry width="290" height="40" as="geometry">
            <mxRectangle width="290" height="40" as="alternateBounds" />
          </mxGeometry>
        </mxCell>
        <mxCell id="rxgpzha8HXijRtfz_eaI-9" value="1878" style="shape=partialRectangle;html=1;whiteSpace=wrap;connectable=0;strokeColor=inherit;overflow=hidden;fillColor=none;top=0;left=0;bottom=0;right=0;pointerEvents=1;rounded=0;shadow=0;labelBorderColor=none;sketch=1;hachureGap=4;jiggle=2;curveFitting=1;fontFamily=Helvetica;fontSize=20;fontColor=#000000;" parent="rxgpzha8HXijRtfz_eaI-7" vertex="1">
          <mxGeometry x="290" width="390" height="40" as="geometry">
            <mxRectangle width="390" height="40" as="alternateBounds" />
          </mxGeometry>
        </mxCell>
        <mxCell id="rxgpzha8HXijRtfz_eaI-10" value="" style="shape=tableRow;horizontal=0;startSize=0;swimlaneHead=0;swimlaneBody=0;strokeColor=inherit;top=0;left=0;bottom=0;right=0;collapsible=0;dropTarget=0;fillColor=none;points=[[0,0.5],[1,0.5]];portConstraint=eastwest;rounded=0;shadow=0;labelBorderColor=none;sketch=1;hachureGap=4;jiggle=2;curveFitting=1;fontFamily=Helvetica;fontSize=20;fontColor=#000000;html=0;" parent="rxgpzha8HXijRtfz_eaI-3" vertex="1">
          <mxGeometry y="160" width="680" height="40" as="geometry" />
        </mxCell>
        <mxCell id="rxgpzha8HXijRtfz_eaI-11" value="Specialization" style="shape=partialRectangle;html=1;whiteSpace=wrap;connectable=0;strokeColor=inherit;overflow=hidden;fillColor=none;top=0;left=0;bottom=0;right=0;pointerEvents=1;rounded=0;shadow=0;labelBorderColor=none;sketch=1;hachureGap=4;jiggle=2;curveFitting=1;fontFamily=Helvetica;fontSize=20;fontColor=#000000;" parent="rxgpzha8HXijRtfz_eaI-10" vertex="1">
          <mxGeometry width="290" height="40" as="geometry">
            <mxRectangle width="290" height="40" as="alternateBounds" />
          </mxGeometry>
        </mxCell>
        <mxCell id="rxgpzha8HXijRtfz_eaI-12" value="Combat medic" style="shape=partialRectangle;html=1;whiteSpace=wrap;connectable=0;strokeColor=inherit;overflow=hidden;fillColor=none;top=0;left=0;bottom=0;right=0;pointerEvents=1;rounded=0;shadow=0;labelBorderColor=none;sketch=1;hachureGap=4;jiggle=2;curveFitting=1;fontFamily=Helvetica;fontSize=20;fontColor=#000000;" parent="rxgpzha8HXijRtfz_eaI-10" vertex="1">
          <mxGeometry x="290" width="390" height="40" as="geometry">
            <mxRectangle width="390" height="40" as="alternateBounds" />
          </mxGeometry>
        </mxCell>
        <mxCell id="rxgpzha8HXijRtfz_eaI-13" value="" style="shape=tableRow;horizontal=0;startSize=0;swimlaneHead=0;swimlaneBody=0;strokeColor=inherit;top=0;left=0;bottom=0;right=0;collapsible=0;dropTarget=0;fillColor=none;points=[[0,0.5],[1,0.5]];portConstraint=eastwest;rounded=0;shadow=0;labelBorderColor=none;sketch=1;hachureGap=4;jiggle=2;curveFitting=1;fontFamily=Helvetica;fontSize=20;fontColor=#000000;html=0;" parent="rxgpzha8HXijRtfz_eaI-3" vertex="1">
          <mxGeometry y="200" width="680" height="40" as="geometry" />
        </mxCell>
        <mxCell id="rxgpzha8HXijRtfz_eaI-14" value="email" style="shape=partialRectangle;html=1;whiteSpace=wrap;connectable=0;strokeColor=inherit;overflow=hidden;fillColor=none;top=0;left=0;bottom=0;right=0;pointerEvents=1;rounded=0;shadow=0;labelBorderColor=none;sketch=1;hachureGap=4;jiggle=2;curveFitting=1;fontFamily=Helvetica;fontSize=20;fontColor=#000000;" parent="rxgpzha8HXijRtfz_eaI-13" vertex="1">
          <mxGeometry width="290" height="40" as="geometry">
            <mxRectangle width="290" height="40" as="alternateBounds" />
          </mxGeometry>
        </mxCell>
        <mxCell id="rxgpzha8HXijRtfz_eaI-15" value="jh_watson@micropeutist.com" style="shape=partialRectangle;html=1;whiteSpace=wrap;connectable=0;strokeColor=inherit;overflow=hidden;fillColor=none;top=0;left=0;bottom=0;right=0;pointerEvents=1;rounded=0;shadow=0;labelBorderColor=none;sketch=1;hachureGap=4;jiggle=2;curveFitting=1;fontFamily=Helvetica;fontSize=20;fontColor=#000000;" parent="rxgpzha8HXijRtfz_eaI-13" vertex="1">
          <mxGeometry x="290" width="390" height="40" as="geometry">
            <mxRectangle width="390" height="40" as="alternateBounds" />
          </mxGeometry>
        </mxCell>
        <mxCell id="ppMjCbeCI9v5LeM4ophR-1" value="Assets" style="childLayout=tableLayout;recursiveResize=0;shadow=0;fontSize=24;labelBackgroundColor=none;rounded=0;fontFamily=Helvetica;swimlaneLine=0;sketch=1;curveFitting=1;jiggle=2;" parent="1" vertex="1">
          <mxGeometry x="60" y="640" width="744" height="198" as="geometry" />
        </mxCell>
        <mxCell id="ppMjCbeCI9v5LeM4ophR-2" value="" style="shape=tableRow;horizontal=0;startSize=0;swimlaneHead=0;swimlaneBody=0;top=0;left=0;bottom=0;right=0;dropTarget=0;collapsible=0;recursiveResize=0;expand=0;fontStyle=0;fontSize=24;labelBackgroundColor=none;rounded=0;fontFamily=Helvetica;swimlaneLine=0;shadow=0;sketch=1;curveFitting=1;jiggle=2;" parent="ppMjCbeCI9v5LeM4ophR-1" vertex="1">
          <mxGeometry width="744" height="80" as="geometry" />
        </mxCell>
        <mxCell id="ppMjCbeCI9v5LeM4ophR-3" value="Patient&#xa;Name" style="connectable=0;recursiveResize=0;align=center;fontStyle=1;fontSize=24;labelBackgroundColor=none;rounded=0;fontFamily=Helvetica;swimlaneLine=0;shadow=0;sketch=1;curveFitting=1;jiggle=2;" parent="ppMjCbeCI9v5LeM4ophR-2" vertex="1">
          <mxGeometry width="176" height="80" as="geometry">
            <mxRectangle width="176" height="80" as="alternateBounds" />
          </mxGeometry>
        </mxCell>
        <mxCell id="ppMjCbeCI9v5LeM4ophR-4" value="Age" style="connectable=0;recursiveResize=0;align=center;fontStyle=1;fontSize=24;labelBackgroundColor=none;rounded=0;fontFamily=Helvetica;swimlaneLine=0;shadow=0;sketch=1;curveFitting=1;jiggle=2;" parent="ppMjCbeCI9v5LeM4ophR-2" vertex="1">
          <mxGeometry x="176" width="160" height="80" as="geometry">
            <mxRectangle width="160" height="80" as="alternateBounds" />
          </mxGeometry>
        </mxCell>
        <mxCell id="ppMjCbeCI9v5LeM4ophR-5" value="Gender" style="connectable=0;recursiveResize=0;align=center;fontStyle=1;fontSize=24;labelBackgroundColor=none;rounded=0;fontFamily=Helvetica;swimlaneLine=0;shadow=0;sketch=1;curveFitting=1;jiggle=2;" parent="ppMjCbeCI9v5LeM4ophR-2" vertex="1">
          <mxGeometry x="336" width="204" height="80" as="geometry">
            <mxRectangle width="204" height="80" as="alternateBounds" />
          </mxGeometry>
        </mxCell>
        <mxCell id="ppMjCbeCI9v5LeM4ophR-6" value="State" style="connectable=0;recursiveResize=0;align=center;fontStyle=1;fontSize=24;labelBackgroundColor=none;rounded=0;fontFamily=Helvetica;swimlaneLine=0;shadow=0;sketch=1;curveFitting=1;jiggle=2;" parent="ppMjCbeCI9v5LeM4ophR-2" vertex="1">
          <mxGeometry x="540" width="204" height="80" as="geometry">
            <mxRectangle width="204" height="80" as="alternateBounds" />
          </mxGeometry>
        </mxCell>
        <mxCell id="ppMjCbeCI9v5LeM4ophR-8" value="" style="shape=tableRow;horizontal=0;startSize=0;swimlaneHead=0;swimlaneBody=0;top=0;left=0;bottom=0;right=0;dropTarget=0;collapsible=0;recursiveResize=0;expand=0;fontStyle=0;fontSize=24;labelBackgroundColor=none;rounded=0;fontFamily=Helvetica;swimlaneLine=0;shadow=0;sketch=1;curveFitting=1;jiggle=2;" parent="ppMjCbeCI9v5LeM4ophR-1" vertex="1">
          <mxGeometry y="80" width="744" height="58" as="geometry" />
        </mxCell>
        <mxCell id="ppMjCbeCI9v5LeM4ophR-9" value="Laura Capway" style="connectable=0;recursiveResize=0;align=center;whiteSpace=wrap;fontSize=24;labelBackgroundColor=none;rounded=0;fontFamily=Helvetica;swimlaneLine=0;shadow=0;sketch=1;curveFitting=1;jiggle=2;fontStyle=4" parent="ppMjCbeCI9v5LeM4ophR-8" vertex="1">
          <mxGeometry width="176" height="58" as="geometry">
            <mxRectangle width="176" height="58" as="alternateBounds" />
          </mxGeometry>
        </mxCell>
        <mxCell id="ppMjCbeCI9v5LeM4ophR-10" value="33" style="connectable=0;recursiveResize=0;align=center;whiteSpace=wrap;fontSize=24;labelBackgroundColor=none;rounded=0;fontFamily=Helvetica;swimlaneLine=0;shadow=0;sketch=1;curveFitting=1;jiggle=2;" parent="ppMjCbeCI9v5LeM4ophR-8" vertex="1">
          <mxGeometry x="176" width="160" height="58" as="geometry">
            <mxRectangle width="160" height="58" as="alternateBounds" />
          </mxGeometry>
        </mxCell>
        <mxCell id="ppMjCbeCI9v5LeM4ophR-11" value="Female" style="connectable=0;recursiveResize=0;align=center;whiteSpace=wrap;fontSize=24;labelBackgroundColor=none;rounded=0;fontFamily=Helvetica;swimlaneLine=0;shadow=0;sketch=1;curveFitting=1;jiggle=2;fontStyle=0" parent="ppMjCbeCI9v5LeM4ophR-8" vertex="1">
          <mxGeometry x="336" width="204" height="58" as="geometry">
            <mxRectangle width="204" height="58" as="alternateBounds" />
          </mxGeometry>
        </mxCell>
        <mxCell id="ppMjCbeCI9v5LeM4ophR-12" value="healthy" style="connectable=0;recursiveResize=0;align=center;whiteSpace=wrap;fontSize=24;labelBackgroundColor=none;rounded=0;fontFamily=Helvetica;swimlaneLine=0;shadow=0;sketch=1;curveFitting=1;jiggle=2;fontStyle=0" parent="ppMjCbeCI9v5LeM4ophR-8" vertex="1">
          <mxGeometry x="540" width="204" height="58" as="geometry">
            <mxRectangle width="204" height="58" as="alternateBounds" />
          </mxGeometry>
        </mxCell>
        <mxCell id="ppMjCbeCI9v5LeM4ophR-20" value="" style="shape=tableRow;horizontal=0;startSize=0;swimlaneHead=0;swimlaneBody=0;top=0;left=0;bottom=0;right=0;dropTarget=0;collapsible=0;recursiveResize=0;expand=0;fontStyle=0;fontSize=24;labelBackgroundColor=none;rounded=0;fontFamily=Helvetica;swimlaneLine=0;shadow=0;sketch=1;curveFitting=1;jiggle=2;" parent="ppMjCbeCI9v5LeM4ophR-1" vertex="1">
          <mxGeometry y="138" width="744" height="60" as="geometry" />
        </mxCell>
        <mxCell id="ppMjCbeCI9v5LeM4ophR-21" value="Andy Bay" style="connectable=0;recursiveResize=0;fontStyle=4;align=center;whiteSpace=wrap;fontSize=24;labelBackgroundColor=none;rounded=0;fontFamily=Helvetica;swimlaneLine=0;shadow=0;sketch=1;curveFitting=1;jiggle=2;" parent="ppMjCbeCI9v5LeM4ophR-20" vertex="1">
          <mxGeometry width="176" height="60" as="geometry">
            <mxRectangle width="176" height="60" as="alternateBounds" />
          </mxGeometry>
        </mxCell>
        <mxCell id="ppMjCbeCI9v5LeM4ophR-22" value="67" style="connectable=0;recursiveResize=0;fontStyle=0;align=center;whiteSpace=wrap;fontSize=24;labelBackgroundColor=none;rounded=0;fontFamily=Helvetica;swimlaneLine=0;shadow=0;sketch=1;curveFitting=1;jiggle=2;" parent="ppMjCbeCI9v5LeM4ophR-20" vertex="1">
          <mxGeometry x="176" width="160" height="60" as="geometry">
            <mxRectangle width="160" height="60" as="alternateBounds" />
          </mxGeometry>
        </mxCell>
        <mxCell id="ppMjCbeCI9v5LeM4ophR-23" value="Male" style="connectable=0;recursiveResize=0;fontStyle=0;align=center;whiteSpace=wrap;fontSize=24;labelBackgroundColor=none;rounded=0;fontFamily=Helvetica;swimlaneLine=0;shadow=0;sketch=1;curveFitting=1;jiggle=2;" parent="ppMjCbeCI9v5LeM4ophR-20" vertex="1">
          <mxGeometry x="336" width="204" height="60" as="geometry">
            <mxRectangle width="204" height="60" as="alternateBounds" />
          </mxGeometry>
        </mxCell>
        <mxCell id="ppMjCbeCI9v5LeM4ophR-24" value="Gunshot wound" style="connectable=0;recursiveResize=0;fontStyle=0;align=center;whiteSpace=wrap;fontSize=24;labelBackgroundColor=none;rounded=0;fontFamily=Helvetica;swimlaneLine=0;shadow=0;sketch=1;curveFitting=1;jiggle=2;" parent="ppMjCbeCI9v5LeM4ophR-20" vertex="1">
          <mxGeometry x="540" width="204" height="60" as="geometry">
            <mxRectangle width="204" height="60" as="alternateBounds" />
          </mxGeometry>
        </mxCell>
        <mxCell id="EhbO8ZdU3EoP5K8lg5Dk-1" value="Patients" style="text;strokeColor=none;fillColor=none;align=center;verticalAlign=middle;whiteSpace=wrap;rounded=0;fontSize=24;fontStyle=0;labelBackgroundColor=none;fontFamily=Helvetica;swimlaneLine=0;shadow=0;sketch=1;curveFitting=1;jiggle=2;fontColor=#777777;" parent="1" vertex="1">
          <mxGeometry x="270" y="40" width="180" height="30" as="geometry" />
        </mxCell>
        <mxCell id="ODHnGZZMG7XkTTeRHJPc-1" value="EDIT" style="strokeWidth=1;shadow=0;dashed=0;align=center;html=1;shape=mxgraph.mockup.buttons.button;strokeColor=#666666;fontColor=default;mainText=;buttonStyle=round;fontSize=30;fontStyle=1;fillColor=#000000;whiteSpace=wrap;rounded=0;labelBackgroundColor=none;labelBorderColor=none;sketch=1;hachureGap=4;jiggle=2;curveFitting=1;fontFamily=Helvetica;fillStyle=hachure;" parent="1" vertex="1">
          <mxGeometry x="357" y="500" width="150" height="50" as="geometry" />
        </mxCell>
        <mxCell id="ODHnGZZMG7XkTTeRHJPc-2" value="DELETE" style="strokeWidth=1;shadow=0;dashed=0;align=center;html=1;shape=mxgraph.mockup.buttons.button;strokeColor=#666666;fontColor=default;mainText=;buttonStyle=round;fontSize=30;fontStyle=1;fillColor=#000000;whiteSpace=wrap;rounded=0;labelBackgroundColor=none;labelBorderColor=none;sketch=1;hachureGap=4;jiggle=2;curveFitting=1;fontFamily=Helvetica;fillStyle=hachure;" parent="1" vertex="1">
          <mxGeometry x="600" y="500" width="150" height="50" as="geometry" />
        </mxCell>
        <mxCell id="QFGmvBUcwrA5chqgz2rO-1" value="ADD" style="strokeWidth=1;shadow=0;dashed=0;align=center;html=1;shape=mxgraph.mockup.buttons.button;strokeColor=#666666;fontColor=default;mainText=;buttonStyle=round;fontSize=30;fontStyle=1;fillColor=#000000;whiteSpace=wrap;rounded=0;labelBackgroundColor=none;labelBorderColor=none;sketch=1;hachureGap=4;jiggle=2;curveFitting=1;fontFamily=Helvetica;fillStyle=hachure;" parent="1" vertex="1">
          <mxGeometry x="650" y="880" width="150" height="50" as="geometry" />
        </mxCell>
      </root>
    </mxGraphModel>
  </diagram>
  <diagram name="Add-Edit Doctor" id="Wy9fBH09G1yQW9_xKxx6">
    <mxGraphModel dx="1434" dy="796" grid="1" gridSize="10" guides="1" tooltips="1" connect="1" arrows="1" fold="1" page="1" pageScale="1" pageWidth="827" pageHeight="1169" math="0" shadow="0">
      <root>
        <mxCell id="tgoDI9Sui2UQLnFjon9n-0" />
        <mxCell id="tgoDI9Sui2UQLnFjon9n-1" parent="tgoDI9Sui2UQLnFjon9n-0" />
        <mxCell id="tgoDI9Sui2UQLnFjon9n-2" value="Doctors" style="text;strokeColor=none;fillColor=none;align=center;verticalAlign=middle;whiteSpace=wrap;rounded=0;fontSize=24;fontStyle=0;labelBackgroundColor=none;fontFamily=Helvetica;swimlaneLine=0;shadow=0;sketch=1;curveFitting=1;jiggle=2;fontColor=#777777;" parent="tgoDI9Sui2UQLnFjon9n-1" vertex="1">
          <mxGeometry x="40" y="40" width="180" height="30" as="geometry" />
        </mxCell>
        <mxCell id="tgoDI9Sui2UQLnFjon9n-4" value="" style="verticalLabelPosition=bottom;shadow=0;dashed=0;align=center;html=1;verticalAlign=top;strokeWidth=1;shape=mxgraph.mockup.containers.userMale;strokeColor=#666666;strokeColor2=#008cff;rounded=0;labelBorderColor=none;sketch=1;hachureGap=4;jiggle=2;curveFitting=1;fontFamily=Helvetica;fontSize=20;fontColor=#000000;" parent="tgoDI9Sui2UQLnFjon9n-1" vertex="1">
          <mxGeometry x="70" y="100" width="100" height="100" as="geometry" />
        </mxCell>
        <mxCell id="tgoDI9Sui2UQLnFjon9n-6" value="" style="shape=table;startSize=0;container=1;collapsible=0;childLayout=tableLayout;rounded=0;shadow=0;labelBorderColor=none;sketch=1;hachureGap=4;jiggle=2;curveFitting=1;fontFamily=Helvetica;fontSize=20;fontColor=#000000;html=0;" parent="tgoDI9Sui2UQLnFjon9n-1" vertex="1">
          <mxGeometry x="70" y="230" width="680" height="240" as="geometry" />
        </mxCell>
        <mxCell id="tgoDI9Sui2UQLnFjon9n-7" style="shape=tableRow;horizontal=0;startSize=0;swimlaneHead=0;swimlaneBody=0;strokeColor=inherit;top=0;left=0;bottom=0;right=0;collapsible=0;dropTarget=0;fillColor=none;points=[[0,0.5],[1,0.5]];portConstraint=eastwest;rounded=0;shadow=0;labelBorderColor=none;sketch=1;hachureGap=4;jiggle=2;curveFitting=1;fontFamily=Helvetica;fontSize=20;fontColor=#000000;html=0;" parent="tgoDI9Sui2UQLnFjon9n-6" vertex="1">
          <mxGeometry width="680" height="40" as="geometry" />
        </mxCell>
        <mxCell id="tgoDI9Sui2UQLnFjon9n-8" value="First Name" style="shape=partialRectangle;html=1;whiteSpace=wrap;connectable=0;strokeColor=inherit;overflow=hidden;fillColor=none;top=0;left=0;bottom=0;right=0;pointerEvents=1;rounded=0;shadow=0;labelBorderColor=none;sketch=1;hachureGap=4;jiggle=2;curveFitting=1;fontFamily=Helvetica;fontSize=20;fontColor=#000000;" parent="tgoDI9Sui2UQLnFjon9n-7" vertex="1">
          <mxGeometry width="290" height="40" as="geometry">
            <mxRectangle width="290" height="40" as="alternateBounds" />
          </mxGeometry>
        </mxCell>
        <mxCell id="tgoDI9Sui2UQLnFjon9n-9" value="" style="shape=partialRectangle;html=1;whiteSpace=wrap;connectable=0;strokeColor=inherit;overflow=hidden;fillColor=none;top=0;left=0;bottom=0;right=0;pointerEvents=1;rounded=0;shadow=0;labelBorderColor=none;sketch=1;hachureGap=4;jiggle=2;curveFitting=1;fontFamily=Helvetica;fontSize=20;fontColor=#000000;" parent="tgoDI9Sui2UQLnFjon9n-7" vertex="1">
          <mxGeometry x="290" width="390" height="40" as="geometry">
            <mxRectangle width="390" height="40" as="alternateBounds" />
          </mxGeometry>
        </mxCell>
        <mxCell id="tgoDI9Sui2UQLnFjon9n-10" style="shape=tableRow;horizontal=0;startSize=0;swimlaneHead=0;swimlaneBody=0;strokeColor=inherit;top=0;left=0;bottom=0;right=0;collapsible=0;dropTarget=0;fillColor=none;points=[[0,0.5],[1,0.5]];portConstraint=eastwest;rounded=0;shadow=0;labelBorderColor=none;sketch=1;hachureGap=4;jiggle=2;curveFitting=1;fontFamily=Helvetica;fontSize=20;fontColor=#000000;html=0;" parent="tgoDI9Sui2UQLnFjon9n-6" vertex="1">
          <mxGeometry y="40" width="680" height="40" as="geometry" />
        </mxCell>
        <mxCell id="tgoDI9Sui2UQLnFjon9n-11" value="Last Name" style="shape=partialRectangle;html=1;whiteSpace=wrap;connectable=0;strokeColor=inherit;overflow=hidden;fillColor=none;top=0;left=0;bottom=0;right=0;pointerEvents=1;rounded=0;shadow=0;labelBorderColor=none;sketch=1;hachureGap=4;jiggle=2;curveFitting=1;fontFamily=Helvetica;fontSize=20;fontColor=#000000;" parent="tgoDI9Sui2UQLnFjon9n-10" vertex="1">
          <mxGeometry width="290" height="40" as="geometry">
            <mxRectangle width="290" height="40" as="alternateBounds" />
          </mxGeometry>
        </mxCell>
        <mxCell id="tgoDI9Sui2UQLnFjon9n-12" value="" style="shape=partialRectangle;html=1;whiteSpace=wrap;connectable=0;strokeColor=inherit;overflow=hidden;fillColor=none;top=0;left=0;bottom=0;right=0;pointerEvents=1;rounded=0;shadow=0;labelBorderColor=none;sketch=1;hachureGap=4;jiggle=2;curveFitting=1;fontFamily=Helvetica;fontSize=20;fontColor=#000000;" parent="tgoDI9Sui2UQLnFjon9n-10" vertex="1">
          <mxGeometry x="290" width="390" height="40" as="geometry">
            <mxRectangle width="390" height="40" as="alternateBounds" />
          </mxGeometry>
        </mxCell>
        <mxCell id="tgoDI9Sui2UQLnFjon9n-13" value="" style="shape=tableRow;horizontal=0;startSize=0;swimlaneHead=0;swimlaneBody=0;strokeColor=inherit;top=0;left=0;bottom=0;right=0;collapsible=0;dropTarget=0;fillColor=none;points=[[0,0.5],[1,0.5]];portConstraint=eastwest;rounded=0;shadow=0;labelBorderColor=none;sketch=1;hachureGap=4;jiggle=2;curveFitting=1;fontFamily=Helvetica;fontSize=20;fontColor=#000000;html=0;" parent="tgoDI9Sui2UQLnFjon9n-6" vertex="1">
          <mxGeometry y="80" width="680" height="40" as="geometry" />
        </mxCell>
        <mxCell id="tgoDI9Sui2UQLnFjon9n-14" value="Grade" style="shape=partialRectangle;html=1;whiteSpace=wrap;connectable=0;strokeColor=inherit;overflow=hidden;fillColor=none;top=0;left=0;bottom=0;right=0;pointerEvents=1;rounded=0;shadow=0;labelBorderColor=none;sketch=1;hachureGap=4;jiggle=2;curveFitting=1;fontFamily=Helvetica;fontSize=20;fontColor=#000000;" parent="tgoDI9Sui2UQLnFjon9n-13" vertex="1">
          <mxGeometry width="290" height="40" as="geometry">
            <mxRectangle width="290" height="40" as="alternateBounds" />
          </mxGeometry>
        </mxCell>
        <mxCell id="tgoDI9Sui2UQLnFjon9n-15" value="" style="shape=partialRectangle;html=1;whiteSpace=wrap;connectable=0;strokeColor=inherit;overflow=hidden;fillColor=none;top=0;left=0;bottom=0;right=0;pointerEvents=1;rounded=0;shadow=0;labelBorderColor=none;sketch=1;hachureGap=4;jiggle=2;curveFitting=1;fontFamily=Helvetica;fontSize=20;fontColor=#000000;" parent="tgoDI9Sui2UQLnFjon9n-13" vertex="1">
          <mxGeometry x="290" width="390" height="40" as="geometry">
            <mxRectangle width="390" height="40" as="alternateBounds" />
          </mxGeometry>
        </mxCell>
        <mxCell id="tgoDI9Sui2UQLnFjon9n-16" value="" style="shape=tableRow;horizontal=0;startSize=0;swimlaneHead=0;swimlaneBody=0;strokeColor=inherit;top=0;left=0;bottom=0;right=0;collapsible=0;dropTarget=0;fillColor=none;points=[[0,0.5],[1,0.5]];portConstraint=eastwest;rounded=0;shadow=0;labelBorderColor=none;sketch=1;hachureGap=4;jiggle=2;curveFitting=1;fontFamily=Helvetica;fontSize=20;fontColor=#000000;html=0;" parent="tgoDI9Sui2UQLnFjon9n-6" vertex="1">
          <mxGeometry y="120" width="680" height="40" as="geometry" />
        </mxCell>
        <mxCell id="tgoDI9Sui2UQLnFjon9n-17" value="Work experience since" style="shape=partialRectangle;html=1;whiteSpace=wrap;connectable=0;strokeColor=inherit;overflow=hidden;fillColor=none;top=0;left=0;bottom=0;right=0;pointerEvents=1;rounded=0;shadow=0;labelBorderColor=none;sketch=1;hachureGap=4;jiggle=2;curveFitting=1;fontFamily=Helvetica;fontSize=20;fontColor=#000000;" parent="tgoDI9Sui2UQLnFjon9n-16" vertex="1">
          <mxGeometry width="290" height="40" as="geometry">
            <mxRectangle width="290" height="40" as="alternateBounds" />
          </mxGeometry>
        </mxCell>
        <mxCell id="tgoDI9Sui2UQLnFjon9n-18" value="" style="shape=partialRectangle;html=1;whiteSpace=wrap;connectable=0;strokeColor=inherit;overflow=hidden;fillColor=none;top=0;left=0;bottom=0;right=0;pointerEvents=1;rounded=0;shadow=0;labelBorderColor=none;sketch=1;hachureGap=4;jiggle=2;curveFitting=1;fontFamily=Helvetica;fontSize=20;fontColor=#000000;" parent="tgoDI9Sui2UQLnFjon9n-16" vertex="1">
          <mxGeometry x="290" width="390" height="40" as="geometry">
            <mxRectangle width="390" height="40" as="alternateBounds" />
          </mxGeometry>
        </mxCell>
        <mxCell id="tgoDI9Sui2UQLnFjon9n-19" value="" style="shape=tableRow;horizontal=0;startSize=0;swimlaneHead=0;swimlaneBody=0;strokeColor=inherit;top=0;left=0;bottom=0;right=0;collapsible=0;dropTarget=0;fillColor=none;points=[[0,0.5],[1,0.5]];portConstraint=eastwest;rounded=0;shadow=0;labelBorderColor=none;sketch=1;hachureGap=4;jiggle=2;curveFitting=1;fontFamily=Helvetica;fontSize=20;fontColor=#000000;html=0;" parent="tgoDI9Sui2UQLnFjon9n-6" vertex="1">
          <mxGeometry y="160" width="680" height="40" as="geometry" />
        </mxCell>
        <mxCell id="tgoDI9Sui2UQLnFjon9n-20" value="Specialization" style="shape=partialRectangle;html=1;whiteSpace=wrap;connectable=0;strokeColor=inherit;overflow=hidden;fillColor=none;top=0;left=0;bottom=0;right=0;pointerEvents=1;rounded=0;shadow=0;labelBorderColor=none;sketch=1;hachureGap=4;jiggle=2;curveFitting=1;fontFamily=Helvetica;fontSize=20;fontColor=#000000;" parent="tgoDI9Sui2UQLnFjon9n-19" vertex="1">
          <mxGeometry width="290" height="40" as="geometry">
            <mxRectangle width="290" height="40" as="alternateBounds" />
          </mxGeometry>
        </mxCell>
        <mxCell id="tgoDI9Sui2UQLnFjon9n-21" value="" style="shape=partialRectangle;html=1;whiteSpace=wrap;connectable=0;strokeColor=inherit;overflow=hidden;fillColor=none;top=0;left=0;bottom=0;right=0;pointerEvents=1;rounded=0;shadow=0;labelBorderColor=none;sketch=1;hachureGap=4;jiggle=2;curveFitting=1;fontFamily=Helvetica;fontSize=20;fontColor=#000000;" parent="tgoDI9Sui2UQLnFjon9n-19" vertex="1">
          <mxGeometry x="290" width="390" height="40" as="geometry">
            <mxRectangle width="390" height="40" as="alternateBounds" />
          </mxGeometry>
        </mxCell>
        <mxCell id="tgoDI9Sui2UQLnFjon9n-22" value="" style="shape=tableRow;horizontal=0;startSize=0;swimlaneHead=0;swimlaneBody=0;strokeColor=inherit;top=0;left=0;bottom=0;right=0;collapsible=0;dropTarget=0;fillColor=none;points=[[0,0.5],[1,0.5]];portConstraint=eastwest;rounded=0;shadow=0;labelBorderColor=none;sketch=1;hachureGap=4;jiggle=2;curveFitting=1;fontFamily=Helvetica;fontSize=20;fontColor=#000000;html=0;" parent="tgoDI9Sui2UQLnFjon9n-6" vertex="1">
          <mxGeometry y="200" width="680" height="40" as="geometry" />
        </mxCell>
        <mxCell id="tgoDI9Sui2UQLnFjon9n-23" value="email" style="shape=partialRectangle;html=1;whiteSpace=wrap;connectable=0;strokeColor=inherit;overflow=hidden;fillColor=none;top=0;left=0;bottom=0;right=0;pointerEvents=1;rounded=0;shadow=0;labelBorderColor=none;sketch=1;hachureGap=4;jiggle=2;curveFitting=1;fontFamily=Helvetica;fontSize=20;fontColor=#000000;" parent="tgoDI9Sui2UQLnFjon9n-22" vertex="1">
          <mxGeometry width="290" height="40" as="geometry">
            <mxRectangle width="290" height="40" as="alternateBounds" />
          </mxGeometry>
        </mxCell>
        <mxCell id="tgoDI9Sui2UQLnFjon9n-24" value="" style="shape=partialRectangle;html=1;whiteSpace=wrap;connectable=0;strokeColor=inherit;overflow=hidden;fillColor=none;top=0;left=0;bottom=0;right=0;pointerEvents=1;rounded=0;shadow=0;labelBorderColor=none;sketch=1;hachureGap=4;jiggle=2;curveFitting=1;fontFamily=Helvetica;fontSize=20;fontColor=#000000;" parent="tgoDI9Sui2UQLnFjon9n-22" vertex="1">
          <mxGeometry x="290" width="390" height="40" as="geometry">
            <mxRectangle width="390" height="40" as="alternateBounds" />
          </mxGeometry>
        </mxCell>
        <mxCell id="tgoDI9Sui2UQLnFjon9n-41" value="Patients" style="text;strokeColor=none;fillColor=none;align=center;verticalAlign=middle;whiteSpace=wrap;rounded=0;fontSize=24;fontStyle=0;labelBackgroundColor=none;fontFamily=Helvetica;swimlaneLine=0;shadow=0;sketch=1;curveFitting=1;jiggle=2;fontColor=#777777;" parent="tgoDI9Sui2UQLnFjon9n-1" vertex="1">
          <mxGeometry x="270" y="40" width="180" height="30" as="geometry" />
        </mxCell>
        <mxCell id="tgoDI9Sui2UQLnFjon9n-43" value="SAVE" style="strokeWidth=1;shadow=0;dashed=0;align=center;html=1;shape=mxgraph.mockup.buttons.button;strokeColor=#666666;fontColor=default;mainText=;buttonStyle=round;fontSize=30;fontStyle=1;fillColor=#000000;whiteSpace=wrap;rounded=0;labelBackgroundColor=none;labelBorderColor=none;sketch=1;hachureGap=4;jiggle=2;curveFitting=1;fontFamily=Helvetica;fillStyle=hachure;" parent="tgoDI9Sui2UQLnFjon9n-1" vertex="1">
          <mxGeometry x="600" y="500" width="150" height="50" as="geometry" />
        </mxCell>
        <mxCell id="tgoDI9Sui2UQLnFjon9n-44" value="ADD" style="strokeWidth=1;shadow=0;dashed=0;align=center;html=1;shape=mxgraph.mockup.buttons.button;strokeColor=#666666;fontColor=default;mainText=;buttonStyle=round;fontSize=30;fontStyle=1;fillColor=#000000;whiteSpace=wrap;rounded=0;labelBackgroundColor=none;labelBorderColor=none;sketch=1;hachureGap=4;jiggle=2;curveFitting=1;fontFamily=Helvetica;fillStyle=hachure;" parent="tgoDI9Sui2UQLnFjon9n-1" vertex="1">
          <mxGeometry x="650" y="880" width="150" height="50" as="geometry" />
        </mxCell>
        <mxCell id="cB5KQT_yRR6AQ81sJmWl-0" value="&lt;font style=&quot;font-size: 40px;&quot;&gt;Add/Edit Doctor&lt;/font&gt;" style="text;html=1;strokeColor=none;fillColor=none;align=center;verticalAlign=middle;whiteSpace=wrap;rounded=0;fontSize=19;fontFamily=Helvetica;fontColor=#000000;fontStyle=1" parent="tgoDI9Sui2UQLnFjon9n-1" vertex="1">
          <mxGeometry x="220" y="120" width="470" height="40" as="geometry" />
        </mxCell>
        <mxCell id="cB5KQT_yRR6AQ81sJmWl-1" value="" style="strokeWidth=2;html=1;shape=mxgraph.flowchart.merge_or_storage;whiteSpace=wrap;rounded=0;shadow=0;labelBackgroundColor=none;labelBorderColor=none;sketch=1;hachureGap=4;jiggle=2;fillStyle=hachure;curveFitting=1;fontFamily=Helvetica;fontSize=30;fontColor=#777777;fillColor=none;" parent="tgoDI9Sui2UQLnFjon9n-1" vertex="1">
          <mxGeometry x="690" y="320" width="50" height="20" as="geometry" />
        </mxCell>
      </root>
    </mxGraphModel>
  </diagram>
  <diagram name="Patient list" id="I94XQJ2-NLJrc25PZXej">
    <mxGraphModel dx="1221" dy="783" grid="1" gridSize="10" guides="1" tooltips="1" connect="1" arrows="1" fold="1" page="1" pageScale="1" pageWidth="827" pageHeight="1169" math="0" shadow="0">
      <root>
        <mxCell id="7hyylhyzngP-NOOarhqR-0" />
        <mxCell id="7hyylhyzngP-NOOarhqR-1" parent="7hyylhyzngP-NOOarhqR-0" />
        <mxCell id="7hyylhyzngP-NOOarhqR-2" value="Doctors" style="text;strokeColor=none;fillColor=none;align=center;verticalAlign=middle;whiteSpace=wrap;rounded=0;fontSize=24;fontStyle=0;labelBackgroundColor=none;fontFamily=Helvetica;swimlaneLine=0;shadow=0;sketch=1;curveFitting=1;jiggle=2;fontColor=#777777;" parent="7hyylhyzngP-NOOarhqR-1" vertex="1">
          <mxGeometry x="40" y="40" width="180" height="30" as="geometry" />
        </mxCell>
        <mxCell id="7hyylhyzngP-NOOarhqR-3" value="Patients" style="text;strokeColor=none;fillColor=none;align=center;verticalAlign=middle;whiteSpace=wrap;rounded=0;fontSize=24;fontStyle=1;labelBackgroundColor=none;fontFamily=Helvetica;swimlaneLine=0;shadow=0;sketch=1;curveFitting=1;jiggle=2;fontColor=#000000;" parent="7hyylhyzngP-NOOarhqR-1" vertex="1">
          <mxGeometry x="270" y="40" width="180" height="30" as="geometry" />
        </mxCell>
        <mxCell id="7hyylhyzngP-NOOarhqR-4" value="Assets" style="childLayout=tableLayout;recursiveResize=0;shadow=0;fontSize=24;labelBackgroundColor=none;rounded=0;fontFamily=Helvetica;swimlaneLine=0;sketch=1;curveFitting=1;jiggle=2;" parent="7hyylhyzngP-NOOarhqR-1" vertex="1">
          <mxGeometry x="40" y="219" width="948" height="366" as="geometry" />
        </mxCell>
        <mxCell id="7hyylhyzngP-NOOarhqR-5" value="" style="shape=tableRow;horizontal=0;startSize=0;swimlaneHead=0;swimlaneBody=0;top=0;left=0;bottom=0;right=0;dropTarget=0;collapsible=0;recursiveResize=0;expand=0;fontStyle=0;fontSize=24;labelBackgroundColor=none;rounded=0;fontFamily=Helvetica;swimlaneLine=0;shadow=0;sketch=1;curveFitting=1;jiggle=2;" parent="7hyylhyzngP-NOOarhqR-4" vertex="1">
          <mxGeometry width="948" height="80" as="geometry" />
        </mxCell>
        <mxCell id="7hyylhyzngP-NOOarhqR-6" value="Patient&#xa;Name" style="connectable=0;recursiveResize=0;align=center;fontStyle=1;fontSize=24;labelBackgroundColor=none;rounded=0;fontFamily=Helvetica;swimlaneLine=0;shadow=0;sketch=1;curveFitting=1;jiggle=2;" parent="7hyylhyzngP-NOOarhqR-5" vertex="1">
          <mxGeometry width="176" height="80" as="geometry">
            <mxRectangle width="176" height="80" as="alternateBounds" />
          </mxGeometry>
        </mxCell>
        <mxCell id="7hyylhyzngP-NOOarhqR-8" value="Age" style="connectable=0;recursiveResize=0;align=center;fontStyle=1;fontSize=24;labelBackgroundColor=none;rounded=0;fontFamily=Helvetica;swimlaneLine=0;shadow=0;sketch=1;curveFitting=1;jiggle=2;" parent="7hyylhyzngP-NOOarhqR-5" vertex="1">
          <mxGeometry x="176" width="160" height="80" as="geometry">
            <mxRectangle width="160" height="80" as="alternateBounds" />
          </mxGeometry>
        </mxCell>
        <mxCell id="7hyylhyzngP-NOOarhqR-9" value="Gender" style="connectable=0;recursiveResize=0;align=center;fontStyle=1;fontSize=24;labelBackgroundColor=none;rounded=0;fontFamily=Helvetica;swimlaneLine=0;shadow=0;sketch=1;curveFitting=1;jiggle=2;" parent="7hyylhyzngP-NOOarhqR-5" vertex="1">
          <mxGeometry x="336" width="204" height="80" as="geometry">
            <mxRectangle width="204" height="80" as="alternateBounds" />
          </mxGeometry>
        </mxCell>
        <mxCell id="I2DNpnVkaooj7puNJgdf-0" value="State" style="connectable=0;recursiveResize=0;align=center;fontStyle=1;fontSize=24;labelBackgroundColor=none;rounded=0;fontFamily=Helvetica;swimlaneLine=0;shadow=0;sketch=1;curveFitting=1;jiggle=2;" parent="7hyylhyzngP-NOOarhqR-5" vertex="1">
          <mxGeometry x="540" width="204" height="80" as="geometry">
            <mxRectangle width="204" height="80" as="alternateBounds" />
          </mxGeometry>
        </mxCell>
        <mxCell id="i6zhWmNkYWqU6kvgXQLF-6" value="Related&#xa;Doctor" style="connectable=0;recursiveResize=0;align=center;fontStyle=1;fontSize=24;labelBackgroundColor=none;rounded=0;fontFamily=Helvetica;swimlaneLine=0;shadow=0;sketch=1;curveFitting=1;jiggle=2;" parent="7hyylhyzngP-NOOarhqR-5" vertex="1">
          <mxGeometry x="744" width="204" height="80" as="geometry">
            <mxRectangle width="204" height="80" as="alternateBounds" />
          </mxGeometry>
        </mxCell>
        <mxCell id="7hyylhyzngP-NOOarhqR-10" value="" style="shape=tableRow;horizontal=0;startSize=0;swimlaneHead=0;swimlaneBody=0;top=0;left=0;bottom=0;right=0;dropTarget=0;collapsible=0;recursiveResize=0;expand=0;fontStyle=0;fontSize=24;labelBackgroundColor=none;rounded=0;fontFamily=Helvetica;swimlaneLine=0;shadow=0;sketch=1;curveFitting=1;jiggle=2;" parent="7hyylhyzngP-NOOarhqR-4" vertex="1">
          <mxGeometry y="80" width="948" height="58" as="geometry" />
        </mxCell>
        <mxCell id="7hyylhyzngP-NOOarhqR-11" value="Laura Capway" style="connectable=0;recursiveResize=0;align=center;whiteSpace=wrap;fontSize=24;labelBackgroundColor=none;rounded=0;fontFamily=Helvetica;swimlaneLine=0;shadow=0;sketch=1;curveFitting=1;jiggle=2;fontStyle=4" parent="7hyylhyzngP-NOOarhqR-10" vertex="1">
          <mxGeometry width="176" height="58" as="geometry">
            <mxRectangle width="176" height="58" as="alternateBounds" />
          </mxGeometry>
        </mxCell>
        <mxCell id="7hyylhyzngP-NOOarhqR-13" value="33" style="connectable=0;recursiveResize=0;align=center;whiteSpace=wrap;fontSize=24;labelBackgroundColor=none;rounded=0;fontFamily=Helvetica;swimlaneLine=0;shadow=0;sketch=1;curveFitting=1;jiggle=2;" parent="7hyylhyzngP-NOOarhqR-10" vertex="1">
          <mxGeometry x="176" width="160" height="58" as="geometry">
            <mxRectangle width="160" height="58" as="alternateBounds" />
          </mxGeometry>
        </mxCell>
        <mxCell id="7hyylhyzngP-NOOarhqR-14" value="Female" style="connectable=0;recursiveResize=0;align=center;whiteSpace=wrap;fontSize=24;labelBackgroundColor=none;rounded=0;fontFamily=Helvetica;swimlaneLine=0;shadow=0;sketch=1;curveFitting=1;jiggle=2;fontStyle=0" parent="7hyylhyzngP-NOOarhqR-10" vertex="1">
          <mxGeometry x="336" width="204" height="58" as="geometry">
            <mxRectangle width="204" height="58" as="alternateBounds" />
          </mxGeometry>
        </mxCell>
        <mxCell id="I2DNpnVkaooj7puNJgdf-1" value="healthy" style="connectable=0;recursiveResize=0;align=center;whiteSpace=wrap;fontSize=24;labelBackgroundColor=none;rounded=0;fontFamily=Helvetica;swimlaneLine=0;shadow=0;sketch=1;curveFitting=1;jiggle=2;fontStyle=0" parent="7hyylhyzngP-NOOarhqR-10" vertex="1">
          <mxGeometry x="540" width="204" height="58" as="geometry">
            <mxRectangle width="204" height="58" as="alternateBounds" />
          </mxGeometry>
        </mxCell>
        <mxCell id="i6zhWmNkYWqU6kvgXQLF-7" value="John Watson" style="connectable=0;recursiveResize=0;align=center;whiteSpace=wrap;fontSize=24;labelBackgroundColor=none;rounded=0;fontFamily=Helvetica;swimlaneLine=0;shadow=0;sketch=1;curveFitting=1;jiggle=2;fontStyle=4" parent="7hyylhyzngP-NOOarhqR-10" vertex="1">
          <mxGeometry x="744" width="204" height="58" as="geometry">
            <mxRectangle width="204" height="58" as="alternateBounds" />
          </mxGeometry>
        </mxCell>
        <mxCell id="7hyylhyzngP-NOOarhqR-15" value="" style="shape=tableRow;horizontal=0;startSize=0;swimlaneHead=0;swimlaneBody=0;top=0;left=0;bottom=0;right=0;dropTarget=0;collapsible=0;recursiveResize=0;expand=0;fontStyle=1;fontSize=24;labelBackgroundColor=none;rounded=0;fontFamily=Helvetica;swimlaneLine=0;shadow=0;sketch=1;curveFitting=1;jiggle=2;" parent="7hyylhyzngP-NOOarhqR-4" vertex="1">
          <mxGeometry y="138" width="948" height="56" as="geometry" />
        </mxCell>
        <mxCell id="7hyylhyzngP-NOOarhqR-16" value="Johan Arh" style="connectable=0;recursiveResize=0;whiteSpace=wrap;fontSize=24;labelBackgroundColor=none;rounded=0;fontFamily=Helvetica;swimlaneLine=0;shadow=0;sketch=1;curveFitting=1;jiggle=2;fontStyle=4" parent="7hyylhyzngP-NOOarhqR-15" vertex="1">
          <mxGeometry width="176" height="56" as="geometry">
            <mxRectangle width="176" height="56" as="alternateBounds" />
          </mxGeometry>
        </mxCell>
        <mxCell id="7hyylhyzngP-NOOarhqR-18" value="25" style="connectable=0;recursiveResize=0;whiteSpace=wrap;fontSize=24;labelBackgroundColor=none;rounded=0;fontFamily=Helvetica;swimlaneLine=0;shadow=0;sketch=1;curveFitting=1;jiggle=2;" parent="7hyylhyzngP-NOOarhqR-15" vertex="1">
          <mxGeometry x="176" width="160" height="56" as="geometry">
            <mxRectangle width="160" height="56" as="alternateBounds" />
          </mxGeometry>
        </mxCell>
        <mxCell id="7hyylhyzngP-NOOarhqR-19" value="Male" style="connectable=0;recursiveResize=0;whiteSpace=wrap;fontSize=24;labelBackgroundColor=none;rounded=0;fontFamily=Helvetica;swimlaneLine=0;shadow=0;sketch=1;curveFitting=1;jiggle=2;fontStyle=0" parent="7hyylhyzngP-NOOarhqR-15" vertex="1">
          <mxGeometry x="336" width="204" height="56" as="geometry">
            <mxRectangle width="204" height="56" as="alternateBounds" />
          </mxGeometry>
        </mxCell>
        <mxCell id="I2DNpnVkaooj7puNJgdf-2" value="Brain injury" style="connectable=0;recursiveResize=0;whiteSpace=wrap;fontSize=24;labelBackgroundColor=none;rounded=0;fontFamily=Helvetica;swimlaneLine=0;shadow=0;sketch=1;curveFitting=1;jiggle=2;fontStyle=0" parent="7hyylhyzngP-NOOarhqR-15" vertex="1">
          <mxGeometry x="540" width="204" height="56" as="geometry">
            <mxRectangle width="204" height="56" as="alternateBounds" />
          </mxGeometry>
        </mxCell>
        <mxCell id="i6zhWmNkYWqU6kvgXQLF-8" value="Stephen Strange" style="connectable=0;recursiveResize=0;whiteSpace=wrap;fontSize=24;labelBackgroundColor=none;rounded=0;fontFamily=Helvetica;swimlaneLine=0;shadow=0;sketch=1;curveFitting=1;jiggle=2;fontStyle=4" parent="7hyylhyzngP-NOOarhqR-15" vertex="1">
          <mxGeometry x="744" width="204" height="56" as="geometry">
            <mxRectangle width="204" height="56" as="alternateBounds" />
          </mxGeometry>
        </mxCell>
        <mxCell id="7hyylhyzngP-NOOarhqR-20" value="" style="shape=tableRow;horizontal=0;startSize=0;swimlaneHead=0;swimlaneBody=0;top=0;left=0;bottom=0;right=0;dropTarget=0;collapsible=0;recursiveResize=0;expand=0;fontStyle=0;fontSize=24;labelBackgroundColor=none;rounded=0;fontFamily=Helvetica;swimlaneLine=0;shadow=0;sketch=1;curveFitting=1;jiggle=2;" parent="7hyylhyzngP-NOOarhqR-4" vertex="1">
          <mxGeometry y="194" width="948" height="60" as="geometry" />
        </mxCell>
        <mxCell id="7hyylhyzngP-NOOarhqR-21" value="Andy Bay" style="connectable=0;recursiveResize=0;fontStyle=4;align=center;whiteSpace=wrap;fontSize=24;labelBackgroundColor=none;rounded=0;fontFamily=Helvetica;swimlaneLine=0;shadow=0;sketch=1;curveFitting=1;jiggle=2;" parent="7hyylhyzngP-NOOarhqR-20" vertex="1">
          <mxGeometry width="176" height="60" as="geometry">
            <mxRectangle width="176" height="60" as="alternateBounds" />
          </mxGeometry>
        </mxCell>
        <mxCell id="7hyylhyzngP-NOOarhqR-23" value="67" style="connectable=0;recursiveResize=0;fontStyle=0;align=center;whiteSpace=wrap;fontSize=24;labelBackgroundColor=none;rounded=0;fontFamily=Helvetica;swimlaneLine=0;shadow=0;sketch=1;curveFitting=1;jiggle=2;" parent="7hyylhyzngP-NOOarhqR-20" vertex="1">
          <mxGeometry x="176" width="160" height="60" as="geometry">
            <mxRectangle width="160" height="60" as="alternateBounds" />
          </mxGeometry>
        </mxCell>
        <mxCell id="7hyylhyzngP-NOOarhqR-24" value="Male" style="connectable=0;recursiveResize=0;fontStyle=0;align=center;whiteSpace=wrap;fontSize=24;labelBackgroundColor=none;rounded=0;fontFamily=Helvetica;swimlaneLine=0;shadow=0;sketch=1;curveFitting=1;jiggle=2;" parent="7hyylhyzngP-NOOarhqR-20" vertex="1">
          <mxGeometry x="336" width="204" height="60" as="geometry">
            <mxRectangle width="204" height="60" as="alternateBounds" />
          </mxGeometry>
        </mxCell>
        <mxCell id="I2DNpnVkaooj7puNJgdf-3" value="Gunshot wound" style="connectable=0;recursiveResize=0;fontStyle=0;align=center;whiteSpace=wrap;fontSize=24;labelBackgroundColor=none;rounded=0;fontFamily=Helvetica;swimlaneLine=0;shadow=0;sketch=1;curveFitting=1;jiggle=2;" parent="7hyylhyzngP-NOOarhqR-20" vertex="1">
          <mxGeometry x="540" width="204" height="60" as="geometry">
            <mxRectangle width="204" height="60" as="alternateBounds" />
          </mxGeometry>
        </mxCell>
        <mxCell id="i6zhWmNkYWqU6kvgXQLF-9" value="John Watson" style="connectable=0;recursiveResize=0;fontStyle=4;align=center;whiteSpace=wrap;fontSize=24;labelBackgroundColor=none;rounded=0;fontFamily=Helvetica;swimlaneLine=0;shadow=0;sketch=1;curveFitting=1;jiggle=2;" parent="7hyylhyzngP-NOOarhqR-20" vertex="1">
          <mxGeometry x="744" width="204" height="60" as="geometry">
            <mxRectangle width="204" height="60" as="alternateBounds" />
          </mxGeometry>
        </mxCell>
        <mxCell id="7hyylhyzngP-NOOarhqR-25" value="" style="shape=tableRow;horizontal=0;startSize=0;swimlaneHead=0;swimlaneBody=0;top=0;left=0;bottom=0;right=0;dropTarget=0;collapsible=0;recursiveResize=0;expand=0;fontStyle=1;fontSize=24;labelBackgroundColor=none;rounded=0;fontFamily=Helvetica;swimlaneLine=0;shadow=0;sketch=1;curveFitting=1;jiggle=2;" parent="7hyylhyzngP-NOOarhqR-4" vertex="1">
          <mxGeometry y="254" width="948" height="56" as="geometry" />
        </mxCell>
        <mxCell id="7hyylhyzngP-NOOarhqR-26" value="Jiu Wu" style="connectable=0;recursiveResize=0;whiteSpace=wrap;fontSize=24;labelBackgroundColor=none;rounded=0;fontFamily=Helvetica;swimlaneLine=0;shadow=0;sketch=1;curveFitting=1;jiggle=2;fontStyle=4" parent="7hyylhyzngP-NOOarhqR-25" vertex="1">
          <mxGeometry width="176" height="56" as="geometry">
            <mxRectangle width="176" height="56" as="alternateBounds" />
          </mxGeometry>
        </mxCell>
        <mxCell id="7hyylhyzngP-NOOarhqR-28" value="30" style="connectable=0;recursiveResize=0;whiteSpace=wrap;fontSize=24;labelBackgroundColor=none;rounded=0;fontFamily=Helvetica;swimlaneLine=0;shadow=0;sketch=1;curveFitting=1;jiggle=2;" parent="7hyylhyzngP-NOOarhqR-25" vertex="1">
          <mxGeometry x="176" width="160" height="56" as="geometry">
            <mxRectangle width="160" height="56" as="alternateBounds" />
          </mxGeometry>
        </mxCell>
        <mxCell id="7hyylhyzngP-NOOarhqR-29" value="Female" style="connectable=0;recursiveResize=0;whiteSpace=wrap;fontSize=24;labelBackgroundColor=none;rounded=0;fontFamily=Helvetica;swimlaneLine=0;shadow=0;sketch=1;curveFitting=1;jiggle=2;" parent="7hyylhyzngP-NOOarhqR-25" vertex="1">
          <mxGeometry x="336" width="204" height="56" as="geometry">
            <mxRectangle width="204" height="56" as="alternateBounds" />
          </mxGeometry>
        </mxCell>
        <mxCell id="I2DNpnVkaooj7puNJgdf-4" value="Spinal injury" style="connectable=0;recursiveResize=0;whiteSpace=wrap;fontSize=24;labelBackgroundColor=none;rounded=0;fontFamily=Helvetica;swimlaneLine=0;shadow=0;sketch=1;curveFitting=1;jiggle=2;fontStyle=0" parent="7hyylhyzngP-NOOarhqR-25" vertex="1">
          <mxGeometry x="540" width="204" height="56" as="geometry">
            <mxRectangle width="204" height="56" as="alternateBounds" />
          </mxGeometry>
        </mxCell>
        <mxCell id="i6zhWmNkYWqU6kvgXQLF-10" value="Stephen Strange" style="connectable=0;recursiveResize=0;whiteSpace=wrap;fontSize=24;labelBackgroundColor=none;rounded=0;fontFamily=Helvetica;swimlaneLine=0;shadow=0;sketch=1;curveFitting=1;jiggle=2;fontStyle=4" parent="7hyylhyzngP-NOOarhqR-25" vertex="1">
          <mxGeometry x="744" width="204" height="56" as="geometry">
            <mxRectangle width="204" height="56" as="alternateBounds" />
          </mxGeometry>
        </mxCell>
        <mxCell id="SmK2Q2NYbMfUFwtRPZkH-0" style="shape=tableRow;horizontal=0;startSize=0;swimlaneHead=0;swimlaneBody=0;top=0;left=0;bottom=0;right=0;dropTarget=0;collapsible=0;recursiveResize=0;expand=0;fontStyle=1;fontSize=24;labelBackgroundColor=none;rounded=0;fontFamily=Helvetica;swimlaneLine=0;shadow=0;sketch=1;curveFitting=1;jiggle=2;" parent="7hyylhyzngP-NOOarhqR-4" vertex="1">
          <mxGeometry y="310" width="948" height="56" as="geometry" />
        </mxCell>
        <mxCell id="SmK2Q2NYbMfUFwtRPZkH-1" value="Adam First" style="connectable=0;recursiveResize=0;whiteSpace=wrap;fontSize=24;labelBackgroundColor=none;rounded=0;fontFamily=Helvetica;swimlaneLine=0;shadow=0;sketch=1;curveFitting=1;jiggle=2;fontStyle=4" parent="SmK2Q2NYbMfUFwtRPZkH-0" vertex="1">
          <mxGeometry width="176" height="56" as="geometry">
            <mxRectangle width="176" height="56" as="alternateBounds" />
          </mxGeometry>
        </mxCell>
        <mxCell id="SmK2Q2NYbMfUFwtRPZkH-3" value="17" style="connectable=0;recursiveResize=0;whiteSpace=wrap;fontSize=24;labelBackgroundColor=none;rounded=0;fontFamily=Helvetica;swimlaneLine=0;shadow=0;sketch=1;curveFitting=1;jiggle=2;" parent="SmK2Q2NYbMfUFwtRPZkH-0" vertex="1">
          <mxGeometry x="176" width="160" height="56" as="geometry">
            <mxRectangle width="160" height="56" as="alternateBounds" />
          </mxGeometry>
        </mxCell>
        <mxCell id="SmK2Q2NYbMfUFwtRPZkH-4" value="Male" style="connectable=0;recursiveResize=0;whiteSpace=wrap;fontSize=24;labelBackgroundColor=none;rounded=0;fontFamily=Helvetica;swimlaneLine=0;shadow=0;sketch=1;curveFitting=1;jiggle=2;" parent="SmK2Q2NYbMfUFwtRPZkH-0" vertex="1">
          <mxGeometry x="336" width="204" height="56" as="geometry">
            <mxRectangle width="204" height="56" as="alternateBounds" />
          </mxGeometry>
        </mxCell>
        <mxCell id="I2DNpnVkaooj7puNJgdf-5" value="in the process of diagnosis" style="connectable=0;recursiveResize=0;whiteSpace=wrap;fontSize=24;labelBackgroundColor=none;rounded=0;fontFamily=Helvetica;swimlaneLine=0;shadow=0;sketch=1;curveFitting=1;jiggle=2;fontStyle=0" parent="SmK2Q2NYbMfUFwtRPZkH-0" vertex="1">
          <mxGeometry x="540" width="204" height="56" as="geometry">
            <mxRectangle width="204" height="56" as="alternateBounds" />
          </mxGeometry>
        </mxCell>
        <mxCell id="i6zhWmNkYWqU6kvgXQLF-11" value="Greg House" style="connectable=0;recursiveResize=0;whiteSpace=wrap;fontSize=24;labelBackgroundColor=none;rounded=0;fontFamily=Helvetica;swimlaneLine=0;shadow=0;sketch=1;curveFitting=1;jiggle=2;fontStyle=4" parent="SmK2Q2NYbMfUFwtRPZkH-0" vertex="1">
          <mxGeometry x="744" width="204" height="56" as="geometry">
            <mxRectangle width="204" height="56" as="alternateBounds" />
          </mxGeometry>
        </mxCell>
        <mxCell id="ALsGYfCuEkwnBipXc-kl-0" value="SEARCH" style="strokeWidth=1;shadow=0;dashed=0;align=center;html=1;shape=mxgraph.mockup.buttons.button;strokeColor=#666666;fontColor=default;mainText=;buttonStyle=round;fontSize=30;fontStyle=1;fillColor=#000000;whiteSpace=wrap;rounded=0;labelBackgroundColor=none;labelBorderColor=none;sketch=1;hachureGap=4;jiggle=2;curveFitting=1;fontFamily=Helvetica;fillStyle=hachure;" parent="7hyylhyzngP-NOOarhqR-1" vertex="1">
          <mxGeometry x="850" y="120" width="150" height="50" as="geometry" />
        </mxCell>
        <mxCell id="ALsGYfCuEkwnBipXc-kl-1" value="&lt;font color=&quot;#777777&quot;&gt;Age from&lt;/font&gt;" style="rounded=1;whiteSpace=wrap;html=1;shadow=0;labelBackgroundColor=none;labelBorderColor=none;sketch=1;hachureGap=4;jiggle=2;fillStyle=hachure;curveFitting=1;fontFamily=Helvetica;fontSize=30;fontColor=default;fillColor=none;align=left;" parent="7hyylhyzngP-NOOarhqR-1" vertex="1">
          <mxGeometry x="40" y="115" width="140" height="60" as="geometry" />
        </mxCell>
        <mxCell id="ALsGYfCuEkwnBipXc-kl-2" value="&lt;font color=&quot;#777777&quot;&gt;Gender&lt;/font&gt;" style="rounded=1;whiteSpace=wrap;html=1;shadow=0;labelBackgroundColor=none;labelBorderColor=none;sketch=1;hachureGap=4;jiggle=2;fillStyle=hachure;curveFitting=1;fontFamily=Helvetica;fontSize=30;fontColor=default;fillColor=none;align=left;" parent="7hyylhyzngP-NOOarhqR-1" vertex="1">
          <mxGeometry x="370" y="115" width="130" height="60" as="geometry" />
        </mxCell>
        <mxCell id="ALsGYfCuEkwnBipXc-kl-3" value="&lt;font color=&quot;#777777&quot;&gt;Doctor&lt;/font&gt;" style="rounded=1;whiteSpace=wrap;html=1;shadow=0;labelBackgroundColor=none;labelBorderColor=none;sketch=1;hachureGap=4;jiggle=2;fillStyle=hachure;curveFitting=1;fontFamily=Helvetica;fontSize=30;fontColor=default;fillColor=none;align=left;" parent="7hyylhyzngP-NOOarhqR-1" vertex="1">
          <mxGeometry x="540" y="115" width="300" height="60" as="geometry" />
        </mxCell>
        <mxCell id="w-TEF_T6O2a4ZqgLS8Cl-0" value="&lt;font color=&quot;#777777&quot;&gt;Age to&lt;/font&gt;" style="rounded=1;whiteSpace=wrap;html=1;shadow=0;labelBackgroundColor=none;labelBorderColor=none;sketch=1;hachureGap=4;jiggle=2;fillStyle=hachure;curveFitting=1;fontFamily=Helvetica;fontSize=30;fontColor=default;fillColor=none;align=left;" parent="7hyylhyzngP-NOOarhqR-1" vertex="1">
          <mxGeometry x="190" y="115" width="130" height="60" as="geometry" />
        </mxCell>
      </root>
    </mxGraphModel>
  </diagram>
  <diagram name="Patient" id="PA0HGedLvXGiPZDU3A5M">
    <mxGraphModel dx="1221" dy="783" grid="1" gridSize="10" guides="1" tooltips="1" connect="1" arrows="1" fold="1" page="1" pageScale="1" pageWidth="827" pageHeight="1169" math="0" shadow="0">
      <root>
        <mxCell id="0fUoSPzpq8gVQ9_s4Cd0-0" />
        <mxCell id="0fUoSPzpq8gVQ9_s4Cd0-1" parent="0fUoSPzpq8gVQ9_s4Cd0-0" />
        <mxCell id="0fUoSPzpq8gVQ9_s4Cd0-2" value="Doctors" style="text;strokeColor=none;fillColor=none;align=center;verticalAlign=middle;whiteSpace=wrap;rounded=0;fontSize=24;fontStyle=0;labelBackgroundColor=none;fontFamily=Helvetica;swimlaneLine=0;shadow=0;sketch=1;curveFitting=1;jiggle=2;fontColor=#777777;" parent="0fUoSPzpq8gVQ9_s4Cd0-1" vertex="1">
          <mxGeometry x="40" y="40" width="180" height="30" as="geometry" />
        </mxCell>
        <mxCell id="0fUoSPzpq8gVQ9_s4Cd0-4" value="" style="verticalLabelPosition=bottom;shadow=0;dashed=0;align=center;html=1;verticalAlign=top;strokeWidth=1;shape=mxgraph.mockup.containers.userMale;strokeColor=#666666;strokeColor2=#008cff;rounded=0;labelBorderColor=none;sketch=1;hachureGap=4;jiggle=2;curveFitting=1;fontFamily=Helvetica;fontSize=20;fontColor=#000000;" parent="0fUoSPzpq8gVQ9_s4Cd0-1" vertex="1">
          <mxGeometry x="70" y="100" width="100" height="100" as="geometry" />
        </mxCell>
        <mxCell id="0fUoSPzpq8gVQ9_s4Cd0-5" value="&lt;font style=&quot;font-size: 40px;&quot;&gt;Andy Bay&lt;/font&gt;" style="text;html=1;strokeColor=none;fillColor=none;align=center;verticalAlign=middle;whiteSpace=wrap;rounded=0;fontSize=19;fontFamily=Helvetica;fontColor=#000000;fontStyle=1" parent="0fUoSPzpq8gVQ9_s4Cd0-1" vertex="1">
          <mxGeometry x="220" y="130" width="400" height="30" as="geometry" />
        </mxCell>
        <mxCell id="0fUoSPzpq8gVQ9_s4Cd0-6" value="" style="shape=table;startSize=0;container=1;collapsible=0;childLayout=tableLayout;rounded=0;shadow=0;labelBorderColor=none;sketch=1;hachureGap=4;jiggle=2;curveFitting=1;fontFamily=Helvetica;fontSize=20;fontColor=#000000;html=0;" parent="0fUoSPzpq8gVQ9_s4Cd0-1" vertex="1">
          <mxGeometry x="70" y="230" width="680" height="280" as="geometry" />
        </mxCell>
        <mxCell id="0fUoSPzpq8gVQ9_s4Cd0-7" style="shape=tableRow;horizontal=0;startSize=0;swimlaneHead=0;swimlaneBody=0;strokeColor=inherit;top=0;left=0;bottom=0;right=0;collapsible=0;dropTarget=0;fillColor=none;points=[[0,0.5],[1,0.5]];portConstraint=eastwest;rounded=0;shadow=0;labelBorderColor=none;sketch=1;hachureGap=4;jiggle=2;curveFitting=1;fontFamily=Helvetica;fontSize=20;fontColor=#000000;html=0;" parent="0fUoSPzpq8gVQ9_s4Cd0-6" vertex="1">
          <mxGeometry width="680" height="40" as="geometry" />
        </mxCell>
        <mxCell id="0fUoSPzpq8gVQ9_s4Cd0-8" value="First Name" style="shape=partialRectangle;html=1;whiteSpace=wrap;connectable=0;strokeColor=inherit;overflow=hidden;fillColor=none;top=0;left=0;bottom=0;right=0;pointerEvents=1;rounded=0;shadow=0;labelBorderColor=none;sketch=1;hachureGap=4;jiggle=2;curveFitting=1;fontFamily=Helvetica;fontSize=20;fontColor=#000000;" parent="0fUoSPzpq8gVQ9_s4Cd0-7" vertex="1">
          <mxGeometry width="290" height="40" as="geometry">
            <mxRectangle width="290" height="40" as="alternateBounds" />
          </mxGeometry>
        </mxCell>
        <mxCell id="0fUoSPzpq8gVQ9_s4Cd0-9" value="Andy" style="shape=partialRectangle;html=1;whiteSpace=wrap;connectable=0;strokeColor=inherit;overflow=hidden;fillColor=none;top=0;left=0;bottom=0;right=0;pointerEvents=1;rounded=0;shadow=0;labelBorderColor=none;sketch=1;hachureGap=4;jiggle=2;curveFitting=1;fontFamily=Helvetica;fontSize=20;fontColor=#000000;" parent="0fUoSPzpq8gVQ9_s4Cd0-7" vertex="1">
          <mxGeometry x="290" width="390" height="40" as="geometry">
            <mxRectangle width="390" height="40" as="alternateBounds" />
          </mxGeometry>
        </mxCell>
        <mxCell id="0fUoSPzpq8gVQ9_s4Cd0-10" style="shape=tableRow;horizontal=0;startSize=0;swimlaneHead=0;swimlaneBody=0;strokeColor=inherit;top=0;left=0;bottom=0;right=0;collapsible=0;dropTarget=0;fillColor=none;points=[[0,0.5],[1,0.5]];portConstraint=eastwest;rounded=0;shadow=0;labelBorderColor=none;sketch=1;hachureGap=4;jiggle=2;curveFitting=1;fontFamily=Helvetica;fontSize=20;fontColor=#000000;html=0;" parent="0fUoSPzpq8gVQ9_s4Cd0-6" vertex="1">
          <mxGeometry y="40" width="680" height="40" as="geometry" />
        </mxCell>
        <mxCell id="0fUoSPzpq8gVQ9_s4Cd0-11" value="Last Name" style="shape=partialRectangle;html=1;whiteSpace=wrap;connectable=0;strokeColor=inherit;overflow=hidden;fillColor=none;top=0;left=0;bottom=0;right=0;pointerEvents=1;rounded=0;shadow=0;labelBorderColor=none;sketch=1;hachureGap=4;jiggle=2;curveFitting=1;fontFamily=Helvetica;fontSize=20;fontColor=#000000;" parent="0fUoSPzpq8gVQ9_s4Cd0-10" vertex="1">
          <mxGeometry width="290" height="40" as="geometry">
            <mxRectangle width="290" height="40" as="alternateBounds" />
          </mxGeometry>
        </mxCell>
        <mxCell id="0fUoSPzpq8gVQ9_s4Cd0-12" value="Bay" style="shape=partialRectangle;html=1;whiteSpace=wrap;connectable=0;strokeColor=inherit;overflow=hidden;fillColor=none;top=0;left=0;bottom=0;right=0;pointerEvents=1;rounded=0;shadow=0;labelBorderColor=none;sketch=1;hachureGap=4;jiggle=2;curveFitting=1;fontFamily=Helvetica;fontSize=20;fontColor=#000000;" parent="0fUoSPzpq8gVQ9_s4Cd0-10" vertex="1">
          <mxGeometry x="290" width="390" height="40" as="geometry">
            <mxRectangle width="390" height="40" as="alternateBounds" />
          </mxGeometry>
        </mxCell>
        <mxCell id="0fUoSPzpq8gVQ9_s4Cd0-13" value="" style="shape=tableRow;horizontal=0;startSize=0;swimlaneHead=0;swimlaneBody=0;strokeColor=inherit;top=0;left=0;bottom=0;right=0;collapsible=0;dropTarget=0;fillColor=none;points=[[0,0.5],[1,0.5]];portConstraint=eastwest;rounded=0;shadow=0;labelBorderColor=none;sketch=1;hachureGap=4;jiggle=2;curveFitting=1;fontFamily=Helvetica;fontSize=20;fontColor=#000000;html=0;" parent="0fUoSPzpq8gVQ9_s4Cd0-6" vertex="1">
          <mxGeometry y="80" width="680" height="40" as="geometry" />
        </mxCell>
        <mxCell id="0fUoSPzpq8gVQ9_s4Cd0-14" value="Gender" style="shape=partialRectangle;html=1;whiteSpace=wrap;connectable=0;strokeColor=inherit;overflow=hidden;fillColor=none;top=0;left=0;bottom=0;right=0;pointerEvents=1;rounded=0;shadow=0;labelBorderColor=none;sketch=1;hachureGap=4;jiggle=2;curveFitting=1;fontFamily=Helvetica;fontSize=20;fontColor=#000000;" parent="0fUoSPzpq8gVQ9_s4Cd0-13" vertex="1">
          <mxGeometry width="290" height="40" as="geometry">
            <mxRectangle width="290" height="40" as="alternateBounds" />
          </mxGeometry>
        </mxCell>
        <mxCell id="0fUoSPzpq8gVQ9_s4Cd0-15" value="Male" style="shape=partialRectangle;html=1;whiteSpace=wrap;connectable=0;strokeColor=inherit;overflow=hidden;fillColor=none;top=0;left=0;bottom=0;right=0;pointerEvents=1;rounded=0;shadow=0;labelBorderColor=none;sketch=1;hachureGap=4;jiggle=2;curveFitting=1;fontFamily=Helvetica;fontSize=20;fontColor=#000000;" parent="0fUoSPzpq8gVQ9_s4Cd0-13" vertex="1">
          <mxGeometry x="290" width="390" height="40" as="geometry">
            <mxRectangle width="390" height="40" as="alternateBounds" />
          </mxGeometry>
        </mxCell>
        <mxCell id="0fUoSPzpq8gVQ9_s4Cd0-16" value="" style="shape=tableRow;horizontal=0;startSize=0;swimlaneHead=0;swimlaneBody=0;strokeColor=inherit;top=0;left=0;bottom=0;right=0;collapsible=0;dropTarget=0;fillColor=none;points=[[0,0.5],[1,0.5]];portConstraint=eastwest;rounded=0;shadow=0;labelBorderColor=none;sketch=1;hachureGap=4;jiggle=2;curveFitting=1;fontFamily=Helvetica;fontSize=20;fontColor=#000000;html=0;" parent="0fUoSPzpq8gVQ9_s4Cd0-6" vertex="1">
          <mxGeometry y="120" width="680" height="40" as="geometry" />
        </mxCell>
        <mxCell id="0fUoSPzpq8gVQ9_s4Cd0-17" value="Year of Birth" style="shape=partialRectangle;html=1;whiteSpace=wrap;connectable=0;strokeColor=inherit;overflow=hidden;fillColor=none;top=0;left=0;bottom=0;right=0;pointerEvents=1;rounded=0;shadow=0;labelBorderColor=none;sketch=1;hachureGap=4;jiggle=2;curveFitting=1;fontFamily=Helvetica;fontSize=20;fontColor=#000000;" parent="0fUoSPzpq8gVQ9_s4Cd0-16" vertex="1">
          <mxGeometry width="290" height="40" as="geometry">
            <mxRectangle width="290" height="40" as="alternateBounds" />
          </mxGeometry>
        </mxCell>
        <mxCell id="0fUoSPzpq8gVQ9_s4Cd0-18" value="1956" style="shape=partialRectangle;html=1;whiteSpace=wrap;connectable=0;strokeColor=inherit;overflow=hidden;fillColor=none;top=0;left=0;bottom=0;right=0;pointerEvents=1;rounded=0;shadow=0;labelBorderColor=none;sketch=1;hachureGap=4;jiggle=2;curveFitting=1;fontFamily=Helvetica;fontSize=20;fontColor=#000000;" parent="0fUoSPzpq8gVQ9_s4Cd0-16" vertex="1">
          <mxGeometry x="290" width="390" height="40" as="geometry">
            <mxRectangle width="390" height="40" as="alternateBounds" />
          </mxGeometry>
        </mxCell>
        <mxCell id="0fUoSPzpq8gVQ9_s4Cd0-19" value="" style="shape=tableRow;horizontal=0;startSize=0;swimlaneHead=0;swimlaneBody=0;strokeColor=inherit;top=0;left=0;bottom=0;right=0;collapsible=0;dropTarget=0;fillColor=none;points=[[0,0.5],[1,0.5]];portConstraint=eastwest;rounded=0;shadow=0;labelBorderColor=none;sketch=1;hachureGap=4;jiggle=2;curveFitting=1;fontFamily=Helvetica;fontSize=20;fontColor=#000000;html=0;" parent="0fUoSPzpq8gVQ9_s4Cd0-6" vertex="1">
          <mxGeometry y="160" width="680" height="40" as="geometry" />
        </mxCell>
        <mxCell id="0fUoSPzpq8gVQ9_s4Cd0-20" value="State" style="shape=partialRectangle;html=1;whiteSpace=wrap;connectable=0;strokeColor=inherit;overflow=hidden;fillColor=none;top=0;left=0;bottom=0;right=0;pointerEvents=1;rounded=0;shadow=0;labelBorderColor=none;sketch=1;hachureGap=4;jiggle=2;curveFitting=1;fontFamily=Helvetica;fontSize=20;fontColor=#000000;" parent="0fUoSPzpq8gVQ9_s4Cd0-19" vertex="1">
          <mxGeometry width="290" height="40" as="geometry">
            <mxRectangle width="290" height="40" as="alternateBounds" />
          </mxGeometry>
        </mxCell>
        <mxCell id="0fUoSPzpq8gVQ9_s4Cd0-21" value="Gunshot wound" style="shape=partialRectangle;html=1;whiteSpace=wrap;connectable=0;strokeColor=inherit;overflow=hidden;fillColor=none;top=0;left=0;bottom=0;right=0;pointerEvents=1;rounded=0;shadow=0;labelBorderColor=none;sketch=1;hachureGap=4;jiggle=2;curveFitting=1;fontFamily=Helvetica;fontSize=20;fontColor=#000000;" parent="0fUoSPzpq8gVQ9_s4Cd0-19" vertex="1">
          <mxGeometry x="290" width="390" height="40" as="geometry">
            <mxRectangle width="390" height="40" as="alternateBounds" />
          </mxGeometry>
        </mxCell>
        <mxCell id="0fUoSPzpq8gVQ9_s4Cd0-22" value="" style="shape=tableRow;horizontal=0;startSize=0;swimlaneHead=0;swimlaneBody=0;strokeColor=inherit;top=0;left=0;bottom=0;right=0;collapsible=0;dropTarget=0;fillColor=none;points=[[0,0.5],[1,0.5]];portConstraint=eastwest;rounded=0;shadow=0;labelBorderColor=none;sketch=1;hachureGap=4;jiggle=2;curveFitting=1;fontFamily=Helvetica;fontSize=20;fontColor=#000000;html=0;" parent="0fUoSPzpq8gVQ9_s4Cd0-6" vertex="1">
          <mxGeometry y="200" width="680" height="40" as="geometry" />
        </mxCell>
        <mxCell id="0fUoSPzpq8gVQ9_s4Cd0-23" value="email" style="shape=partialRectangle;html=1;whiteSpace=wrap;connectable=0;strokeColor=inherit;overflow=hidden;fillColor=none;top=0;left=0;bottom=0;right=0;pointerEvents=1;rounded=0;shadow=0;labelBorderColor=none;sketch=1;hachureGap=4;jiggle=2;curveFitting=1;fontFamily=Helvetica;fontSize=20;fontColor=#000000;" parent="0fUoSPzpq8gVQ9_s4Cd0-22" vertex="1">
          <mxGeometry width="290" height="40" as="geometry">
            <mxRectangle width="290" height="40" as="alternateBounds" />
          </mxGeometry>
        </mxCell>
        <mxCell id="0fUoSPzpq8gVQ9_s4Cd0-24" value="jh_watson@micropeutist.com" style="shape=partialRectangle;html=1;whiteSpace=wrap;connectable=0;strokeColor=inherit;overflow=hidden;fillColor=none;top=0;left=0;bottom=0;right=0;pointerEvents=1;rounded=0;shadow=0;labelBorderColor=none;sketch=1;hachureGap=4;jiggle=2;curveFitting=1;fontFamily=Helvetica;fontSize=20;fontColor=#000000;" parent="0fUoSPzpq8gVQ9_s4Cd0-22" vertex="1">
          <mxGeometry x="290" width="390" height="40" as="geometry">
            <mxRectangle width="390" height="40" as="alternateBounds" />
          </mxGeometry>
        </mxCell>
        <mxCell id="kh6IolmwuAgK3Cb8Dxhd-0" style="shape=tableRow;horizontal=0;startSize=0;swimlaneHead=0;swimlaneBody=0;strokeColor=inherit;top=0;left=0;bottom=0;right=0;collapsible=0;dropTarget=0;fillColor=none;points=[[0,0.5],[1,0.5]];portConstraint=eastwest;rounded=0;shadow=0;labelBorderColor=none;sketch=1;hachureGap=4;jiggle=2;curveFitting=1;fontFamily=Helvetica;fontSize=20;fontColor=#000000;html=0;" parent="0fUoSPzpq8gVQ9_s4Cd0-6" vertex="1">
          <mxGeometry y="240" width="680" height="40" as="geometry" />
        </mxCell>
        <mxCell id="kh6IolmwuAgK3Cb8Dxhd-1" value="Doctor" style="shape=partialRectangle;html=1;whiteSpace=wrap;connectable=0;strokeColor=inherit;overflow=hidden;fillColor=none;top=0;left=0;bottom=0;right=0;pointerEvents=1;rounded=0;shadow=0;labelBorderColor=none;sketch=1;hachureGap=4;jiggle=2;curveFitting=1;fontFamily=Helvetica;fontSize=20;fontColor=#000000;" parent="kh6IolmwuAgK3Cb8Dxhd-0" vertex="1">
          <mxGeometry width="290" height="40" as="geometry">
            <mxRectangle width="290" height="40" as="alternateBounds" />
          </mxGeometry>
        </mxCell>
        <mxCell id="kh6IolmwuAgK3Cb8Dxhd-2" value="&lt;u&gt;John Watson&lt;/u&gt;" style="shape=partialRectangle;html=1;whiteSpace=wrap;connectable=0;strokeColor=inherit;overflow=hidden;fillColor=none;top=0;left=0;bottom=0;right=0;pointerEvents=1;rounded=0;shadow=0;labelBorderColor=none;sketch=1;hachureGap=4;jiggle=2;curveFitting=1;fontFamily=Helvetica;fontSize=20;fontColor=#000000;" parent="kh6IolmwuAgK3Cb8Dxhd-0" vertex="1">
          <mxGeometry x="290" width="390" height="40" as="geometry">
            <mxRectangle width="390" height="40" as="alternateBounds" />
          </mxGeometry>
        </mxCell>
        <mxCell id="0fUoSPzpq8gVQ9_s4Cd0-41" value="Patients" style="text;strokeColor=none;fillColor=none;align=center;verticalAlign=middle;whiteSpace=wrap;rounded=0;fontSize=24;fontStyle=0;labelBackgroundColor=none;fontFamily=Helvetica;swimlaneLine=0;shadow=0;sketch=1;curveFitting=1;jiggle=2;fontColor=#777777;" parent="0fUoSPzpq8gVQ9_s4Cd0-1" vertex="1">
          <mxGeometry x="270" y="40" width="180" height="30" as="geometry" />
        </mxCell>
        <mxCell id="0fUoSPzpq8gVQ9_s4Cd0-42" value="EDIT" style="strokeWidth=1;shadow=0;dashed=0;align=center;html=1;shape=mxgraph.mockup.buttons.button;strokeColor=#666666;fontColor=default;mainText=;buttonStyle=round;fontSize=30;fontStyle=1;fillColor=#000000;whiteSpace=wrap;rounded=0;labelBackgroundColor=none;labelBorderColor=none;sketch=1;hachureGap=4;jiggle=2;curveFitting=1;fontFamily=Helvetica;fillStyle=hachure;" parent="0fUoSPzpq8gVQ9_s4Cd0-1" vertex="1">
          <mxGeometry x="357" y="544" width="150" height="50" as="geometry" />
        </mxCell>
        <mxCell id="0fUoSPzpq8gVQ9_s4Cd0-43" value="DELETE" style="strokeWidth=1;shadow=0;dashed=0;align=center;html=1;shape=mxgraph.mockup.buttons.button;strokeColor=#666666;fontColor=default;mainText=;buttonStyle=round;fontSize=30;fontStyle=1;fillColor=#000000;whiteSpace=wrap;rounded=0;labelBackgroundColor=none;labelBorderColor=none;sketch=1;hachureGap=4;jiggle=2;curveFitting=1;fontFamily=Helvetica;fillStyle=hachure;" parent="0fUoSPzpq8gVQ9_s4Cd0-1" vertex="1">
          <mxGeometry x="600" y="544" width="150" height="50" as="geometry" />
        </mxCell>
      </root>
    </mxGraphModel>
  </diagram>
  <diagram name="Add-Edit Patient" id="ccVI9QijY0rLKQKNBqp4">
    <mxGraphModel dx="1221" dy="783" grid="1" gridSize="10" guides="1" tooltips="1" connect="1" arrows="1" fold="1" page="1" pageScale="1" pageWidth="827" pageHeight="1169" math="0" shadow="0">
      <root>
        <mxCell id="Ik9ZMRsdfzqyXArvj2IS-0" />
        <mxCell id="Ik9ZMRsdfzqyXArvj2IS-1" parent="Ik9ZMRsdfzqyXArvj2IS-0" />
        <mxCell id="CiihYLhRPKOztVzB5AIv-0" value="" style="shape=table;startSize=0;container=1;collapsible=0;childLayout=tableLayout;rounded=0;shadow=0;labelBorderColor=none;sketch=1;hachureGap=4;jiggle=2;curveFitting=1;fontFamily=Helvetica;fontSize=20;fontColor=#000000;html=0;" parent="Ik9ZMRsdfzqyXArvj2IS-1" vertex="1">
          <mxGeometry x="70" y="230" width="680" height="280" as="geometry" />
        </mxCell>
        <mxCell id="CiihYLhRPKOztVzB5AIv-1" style="shape=tableRow;horizontal=0;startSize=0;swimlaneHead=0;swimlaneBody=0;strokeColor=inherit;top=0;left=0;bottom=0;right=0;collapsible=0;dropTarget=0;fillColor=none;points=[[0,0.5],[1,0.5]];portConstraint=eastwest;rounded=0;shadow=0;labelBorderColor=none;sketch=1;hachureGap=4;jiggle=2;curveFitting=1;fontFamily=Helvetica;fontSize=20;fontColor=#000000;html=0;" parent="CiihYLhRPKOztVzB5AIv-0" vertex="1">
          <mxGeometry width="680" height="40" as="geometry" />
        </mxCell>
        <mxCell id="CiihYLhRPKOztVzB5AIv-2" value="First Name" style="shape=partialRectangle;html=1;whiteSpace=wrap;connectable=0;strokeColor=inherit;overflow=hidden;fillColor=none;top=0;left=0;bottom=0;right=0;pointerEvents=1;rounded=0;shadow=0;labelBorderColor=none;sketch=1;hachureGap=4;jiggle=2;curveFitting=1;fontFamily=Helvetica;fontSize=20;fontColor=#000000;" parent="CiihYLhRPKOztVzB5AIv-1" vertex="1">
          <mxGeometry width="290" height="40" as="geometry">
            <mxRectangle width="290" height="40" as="alternateBounds" />
          </mxGeometry>
        </mxCell>
        <mxCell id="CiihYLhRPKOztVzB5AIv-3" value="" style="shape=partialRectangle;html=1;whiteSpace=wrap;connectable=0;strokeColor=inherit;overflow=hidden;fillColor=none;top=0;left=0;bottom=0;right=0;pointerEvents=1;rounded=0;shadow=0;labelBorderColor=none;sketch=1;hachureGap=4;jiggle=2;curveFitting=1;fontFamily=Helvetica;fontSize=20;fontColor=#000000;" parent="CiihYLhRPKOztVzB5AIv-1" vertex="1">
          <mxGeometry x="290" width="390" height="40" as="geometry">
            <mxRectangle width="390" height="40" as="alternateBounds" />
          </mxGeometry>
        </mxCell>
        <mxCell id="CiihYLhRPKOztVzB5AIv-4" style="shape=tableRow;horizontal=0;startSize=0;swimlaneHead=0;swimlaneBody=0;strokeColor=inherit;top=0;left=0;bottom=0;right=0;collapsible=0;dropTarget=0;fillColor=none;points=[[0,0.5],[1,0.5]];portConstraint=eastwest;rounded=0;shadow=0;labelBorderColor=none;sketch=1;hachureGap=4;jiggle=2;curveFitting=1;fontFamily=Helvetica;fontSize=20;fontColor=#000000;html=0;" parent="CiihYLhRPKOztVzB5AIv-0" vertex="1">
          <mxGeometry y="40" width="680" height="40" as="geometry" />
        </mxCell>
        <mxCell id="CiihYLhRPKOztVzB5AIv-5" value="Last Name" style="shape=partialRectangle;html=1;whiteSpace=wrap;connectable=0;strokeColor=inherit;overflow=hidden;fillColor=none;top=0;left=0;bottom=0;right=0;pointerEvents=1;rounded=0;shadow=0;labelBorderColor=none;sketch=1;hachureGap=4;jiggle=2;curveFitting=1;fontFamily=Helvetica;fontSize=20;fontColor=#000000;" parent="CiihYLhRPKOztVzB5AIv-4" vertex="1">
          <mxGeometry width="290" height="40" as="geometry">
            <mxRectangle width="290" height="40" as="alternateBounds" />
          </mxGeometry>
        </mxCell>
        <mxCell id="CiihYLhRPKOztVzB5AIv-6" value="" style="shape=partialRectangle;html=1;whiteSpace=wrap;connectable=0;strokeColor=inherit;overflow=hidden;fillColor=none;top=0;left=0;bottom=0;right=0;pointerEvents=1;rounded=0;shadow=0;labelBorderColor=none;sketch=1;hachureGap=4;jiggle=2;curveFitting=1;fontFamily=Helvetica;fontSize=20;fontColor=#000000;" parent="CiihYLhRPKOztVzB5AIv-4" vertex="1">
          <mxGeometry x="290" width="390" height="40" as="geometry">
            <mxRectangle width="390" height="40" as="alternateBounds" />
          </mxGeometry>
        </mxCell>
        <mxCell id="CiihYLhRPKOztVzB5AIv-7" value="" style="shape=tableRow;horizontal=0;startSize=0;swimlaneHead=0;swimlaneBody=0;strokeColor=inherit;top=0;left=0;bottom=0;right=0;collapsible=0;dropTarget=0;fillColor=none;points=[[0,0.5],[1,0.5]];portConstraint=eastwest;rounded=0;shadow=0;labelBorderColor=none;sketch=1;hachureGap=4;jiggle=2;curveFitting=1;fontFamily=Helvetica;fontSize=20;fontColor=#000000;html=0;" parent="CiihYLhRPKOztVzB5AIv-0" vertex="1">
          <mxGeometry y="80" width="680" height="40" as="geometry" />
        </mxCell>
        <mxCell id="CiihYLhRPKOztVzB5AIv-8" value="Gender" style="shape=partialRectangle;html=1;whiteSpace=wrap;connectable=0;strokeColor=inherit;overflow=hidden;fillColor=none;top=0;left=0;bottom=0;right=0;pointerEvents=1;rounded=0;shadow=0;labelBorderColor=none;sketch=1;hachureGap=4;jiggle=2;curveFitting=1;fontFamily=Helvetica;fontSize=20;fontColor=#000000;" parent="CiihYLhRPKOztVzB5AIv-7" vertex="1">
          <mxGeometry width="290" height="40" as="geometry">
            <mxRectangle width="290" height="40" as="alternateBounds" />
          </mxGeometry>
        </mxCell>
        <mxCell id="CiihYLhRPKOztVzB5AIv-9" value="" style="shape=partialRectangle;html=1;whiteSpace=wrap;connectable=0;strokeColor=inherit;overflow=hidden;fillColor=none;top=0;left=0;bottom=0;right=0;pointerEvents=1;rounded=0;shadow=0;labelBorderColor=none;sketch=1;hachureGap=4;jiggle=2;curveFitting=1;fontFamily=Helvetica;fontSize=20;fontColor=#000000;" parent="CiihYLhRPKOztVzB5AIv-7" vertex="1">
          <mxGeometry x="290" width="390" height="40" as="geometry">
            <mxRectangle width="390" height="40" as="alternateBounds" />
          </mxGeometry>
        </mxCell>
        <mxCell id="CiihYLhRPKOztVzB5AIv-10" value="" style="shape=tableRow;horizontal=0;startSize=0;swimlaneHead=0;swimlaneBody=0;strokeColor=inherit;top=0;left=0;bottom=0;right=0;collapsible=0;dropTarget=0;fillColor=none;points=[[0,0.5],[1,0.5]];portConstraint=eastwest;rounded=0;shadow=0;labelBorderColor=none;sketch=1;hachureGap=4;jiggle=2;curveFitting=1;fontFamily=Helvetica;fontSize=20;fontColor=#000000;html=0;" parent="CiihYLhRPKOztVzB5AIv-0" vertex="1">
          <mxGeometry y="120" width="680" height="40" as="geometry" />
        </mxCell>
        <mxCell id="CiihYLhRPKOztVzB5AIv-11" value="Year of Birth" style="shape=partialRectangle;html=1;whiteSpace=wrap;connectable=0;strokeColor=inherit;overflow=hidden;fillColor=none;top=0;left=0;bottom=0;right=0;pointerEvents=1;rounded=0;shadow=0;labelBorderColor=none;sketch=1;hachureGap=4;jiggle=2;curveFitting=1;fontFamily=Helvetica;fontSize=20;fontColor=#000000;" parent="CiihYLhRPKOztVzB5AIv-10" vertex="1">
          <mxGeometry width="290" height="40" as="geometry">
            <mxRectangle width="290" height="40" as="alternateBounds" />
          </mxGeometry>
        </mxCell>
        <mxCell id="CiihYLhRPKOztVzB5AIv-12" value="" style="shape=partialRectangle;html=1;whiteSpace=wrap;connectable=0;strokeColor=inherit;overflow=hidden;fillColor=none;top=0;left=0;bottom=0;right=0;pointerEvents=1;rounded=0;shadow=0;labelBorderColor=none;sketch=1;hachureGap=4;jiggle=2;curveFitting=1;fontFamily=Helvetica;fontSize=20;fontColor=#000000;" parent="CiihYLhRPKOztVzB5AIv-10" vertex="1">
          <mxGeometry x="290" width="390" height="40" as="geometry">
            <mxRectangle width="390" height="40" as="alternateBounds" />
          </mxGeometry>
        </mxCell>
        <mxCell id="CiihYLhRPKOztVzB5AIv-13" value="" style="shape=tableRow;horizontal=0;startSize=0;swimlaneHead=0;swimlaneBody=0;strokeColor=inherit;top=0;left=0;bottom=0;right=0;collapsible=0;dropTarget=0;fillColor=none;points=[[0,0.5],[1,0.5]];portConstraint=eastwest;rounded=0;shadow=0;labelBorderColor=none;sketch=1;hachureGap=4;jiggle=2;curveFitting=1;fontFamily=Helvetica;fontSize=20;fontColor=#000000;html=0;" parent="CiihYLhRPKOztVzB5AIv-0" vertex="1">
          <mxGeometry y="160" width="680" height="40" as="geometry" />
        </mxCell>
        <mxCell id="CiihYLhRPKOztVzB5AIv-14" value="State" style="shape=partialRectangle;html=1;whiteSpace=wrap;connectable=0;strokeColor=inherit;overflow=hidden;fillColor=none;top=0;left=0;bottom=0;right=0;pointerEvents=1;rounded=0;shadow=0;labelBorderColor=none;sketch=1;hachureGap=4;jiggle=2;curveFitting=1;fontFamily=Helvetica;fontSize=20;fontColor=#000000;" parent="CiihYLhRPKOztVzB5AIv-13" vertex="1">
          <mxGeometry width="290" height="40" as="geometry">
            <mxRectangle width="290" height="40" as="alternateBounds" />
          </mxGeometry>
        </mxCell>
        <mxCell id="CiihYLhRPKOztVzB5AIv-15" value="" style="shape=partialRectangle;html=1;whiteSpace=wrap;connectable=0;strokeColor=inherit;overflow=hidden;fillColor=none;top=0;left=0;bottom=0;right=0;pointerEvents=1;rounded=0;shadow=0;labelBorderColor=none;sketch=1;hachureGap=4;jiggle=2;curveFitting=1;fontFamily=Helvetica;fontSize=20;fontColor=#000000;" parent="CiihYLhRPKOztVzB5AIv-13" vertex="1">
          <mxGeometry x="290" width="390" height="40" as="geometry">
            <mxRectangle width="390" height="40" as="alternateBounds" />
          </mxGeometry>
        </mxCell>
        <mxCell id="CiihYLhRPKOztVzB5AIv-16" value="" style="shape=tableRow;horizontal=0;startSize=0;swimlaneHead=0;swimlaneBody=0;strokeColor=inherit;top=0;left=0;bottom=0;right=0;collapsible=0;dropTarget=0;fillColor=none;points=[[0,0.5],[1,0.5]];portConstraint=eastwest;rounded=0;shadow=0;labelBorderColor=none;sketch=1;hachureGap=4;jiggle=2;curveFitting=1;fontFamily=Helvetica;fontSize=20;fontColor=#000000;html=0;" parent="CiihYLhRPKOztVzB5AIv-0" vertex="1">
          <mxGeometry y="200" width="680" height="40" as="geometry" />
        </mxCell>
        <mxCell id="CiihYLhRPKOztVzB5AIv-17" value="email" style="shape=partialRectangle;html=1;whiteSpace=wrap;connectable=0;strokeColor=inherit;overflow=hidden;fillColor=none;top=0;left=0;bottom=0;right=0;pointerEvents=1;rounded=0;shadow=0;labelBorderColor=none;sketch=1;hachureGap=4;jiggle=2;curveFitting=1;fontFamily=Helvetica;fontSize=20;fontColor=#000000;" parent="CiihYLhRPKOztVzB5AIv-16" vertex="1">
          <mxGeometry width="290" height="40" as="geometry">
            <mxRectangle width="290" height="40" as="alternateBounds" />
          </mxGeometry>
        </mxCell>
        <mxCell id="CiihYLhRPKOztVzB5AIv-18" value="" style="shape=partialRectangle;html=1;whiteSpace=wrap;connectable=0;strokeColor=inherit;overflow=hidden;fillColor=none;top=0;left=0;bottom=0;right=0;pointerEvents=1;rounded=0;shadow=0;labelBorderColor=none;sketch=1;hachureGap=4;jiggle=2;curveFitting=1;fontFamily=Helvetica;fontSize=20;fontColor=#000000;" parent="CiihYLhRPKOztVzB5AIv-16" vertex="1">
          <mxGeometry x="290" width="390" height="40" as="geometry">
            <mxRectangle width="390" height="40" as="alternateBounds" />
          </mxGeometry>
        </mxCell>
        <mxCell id="CiihYLhRPKOztVzB5AIv-19" style="shape=tableRow;horizontal=0;startSize=0;swimlaneHead=0;swimlaneBody=0;strokeColor=inherit;top=0;left=0;bottom=0;right=0;collapsible=0;dropTarget=0;fillColor=none;points=[[0,0.5],[1,0.5]];portConstraint=eastwest;rounded=0;shadow=0;labelBorderColor=none;sketch=1;hachureGap=4;jiggle=2;curveFitting=1;fontFamily=Helvetica;fontSize=20;fontColor=#000000;html=0;" parent="CiihYLhRPKOztVzB5AIv-0" vertex="1">
          <mxGeometry y="240" width="680" height="40" as="geometry" />
        </mxCell>
        <mxCell id="CiihYLhRPKOztVzB5AIv-20" value="Doctor" style="shape=partialRectangle;html=1;whiteSpace=wrap;connectable=0;strokeColor=inherit;overflow=hidden;fillColor=none;top=0;left=0;bottom=0;right=0;pointerEvents=1;rounded=0;shadow=0;labelBorderColor=none;sketch=1;hachureGap=4;jiggle=2;curveFitting=1;fontFamily=Helvetica;fontSize=20;fontColor=#000000;" parent="CiihYLhRPKOztVzB5AIv-19" vertex="1">
          <mxGeometry width="290" height="40" as="geometry">
            <mxRectangle width="290" height="40" as="alternateBounds" />
          </mxGeometry>
        </mxCell>
        <mxCell id="CiihYLhRPKOztVzB5AIv-21" value="" style="shape=partialRectangle;html=1;whiteSpace=wrap;connectable=0;strokeColor=inherit;overflow=hidden;fillColor=none;top=0;left=0;bottom=0;right=0;pointerEvents=1;rounded=0;shadow=0;labelBorderColor=none;sketch=1;hachureGap=4;jiggle=2;curveFitting=1;fontFamily=Helvetica;fontSize=20;fontColor=#000000;" parent="CiihYLhRPKOztVzB5AIv-19" vertex="1">
          <mxGeometry x="290" width="390" height="40" as="geometry">
            <mxRectangle width="390" height="40" as="alternateBounds" />
          </mxGeometry>
        </mxCell>
        <mxCell id="Ik9ZMRsdfzqyXArvj2IS-2" value="Doctors" style="text;strokeColor=none;fillColor=none;align=center;verticalAlign=middle;whiteSpace=wrap;rounded=0;fontSize=24;fontStyle=0;labelBackgroundColor=none;fontFamily=Helvetica;swimlaneLine=0;shadow=0;sketch=1;curveFitting=1;jiggle=2;fontColor=#777777;" parent="Ik9ZMRsdfzqyXArvj2IS-1" vertex="1">
          <mxGeometry x="40" y="40" width="180" height="30" as="geometry" />
        </mxCell>
        <mxCell id="Ik9ZMRsdfzqyXArvj2IS-3" value="" style="verticalLabelPosition=bottom;shadow=0;dashed=0;align=center;html=1;verticalAlign=top;strokeWidth=1;shape=mxgraph.mockup.containers.userMale;strokeColor=#666666;strokeColor2=#008cff;rounded=0;labelBorderColor=none;sketch=1;hachureGap=4;jiggle=2;curveFitting=1;fontFamily=Helvetica;fontSize=20;fontColor=#000000;" parent="Ik9ZMRsdfzqyXArvj2IS-1" vertex="1">
          <mxGeometry x="70" y="100" width="100" height="100" as="geometry" />
        </mxCell>
        <mxCell id="Ik9ZMRsdfzqyXArvj2IS-4" value="&lt;font style=&quot;font-size: 40px;&quot;&gt;Add/Edit patient&lt;/font&gt;" style="text;html=1;strokeColor=none;fillColor=none;align=center;verticalAlign=middle;whiteSpace=wrap;rounded=0;fontSize=19;fontFamily=Helvetica;fontColor=#000000;fontStyle=1" parent="Ik9ZMRsdfzqyXArvj2IS-1" vertex="1">
          <mxGeometry x="220" y="120" width="470" height="40" as="geometry" />
        </mxCell>
        <mxCell id="Ik9ZMRsdfzqyXArvj2IS-24" value="Patients" style="text;strokeColor=none;fillColor=none;align=center;verticalAlign=middle;whiteSpace=wrap;rounded=0;fontSize=24;fontStyle=0;labelBackgroundColor=none;fontFamily=Helvetica;swimlaneLine=0;shadow=0;sketch=1;curveFitting=1;jiggle=2;fontColor=#777777;" parent="Ik9ZMRsdfzqyXArvj2IS-1" vertex="1">
          <mxGeometry x="270" y="40" width="180" height="30" as="geometry" />
        </mxCell>
        <mxCell id="Ik9ZMRsdfzqyXArvj2IS-26" value="SAVE" style="strokeWidth=1;shadow=0;dashed=0;align=center;html=1;shape=mxgraph.mockup.buttons.button;strokeColor=#666666;fontColor=default;mainText=;buttonStyle=round;fontSize=30;fontStyle=1;fillColor=#000000;whiteSpace=wrap;rounded=0;labelBackgroundColor=none;labelBorderColor=none;sketch=1;hachureGap=4;jiggle=2;curveFitting=1;fontFamily=Helvetica;fillStyle=hachure;" parent="Ik9ZMRsdfzqyXArvj2IS-1" vertex="1">
          <mxGeometry x="600" y="542" width="150" height="50" as="geometry" />
        </mxCell>
        <mxCell id="laXI8zYnGBR1CKE7Q3qm-0" value="" style="strokeWidth=2;html=1;shape=mxgraph.flowchart.merge_or_storage;whiteSpace=wrap;rounded=0;shadow=0;labelBackgroundColor=none;labelBorderColor=none;sketch=1;hachureGap=4;jiggle=2;fillStyle=hachure;curveFitting=1;fontFamily=Helvetica;fontSize=30;fontColor=#777777;fillColor=none;" parent="Ik9ZMRsdfzqyXArvj2IS-1" vertex="1">
          <mxGeometry x="690" y="320" width="50" height="20" as="geometry" />
        </mxCell>
        <mxCell id="CiihYLhRPKOztVzB5AIv-22" value="" style="strokeWidth=2;html=1;shape=mxgraph.flowchart.merge_or_storage;whiteSpace=wrap;rounded=0;shadow=0;labelBackgroundColor=none;labelBorderColor=none;sketch=1;hachureGap=4;jiggle=2;fillStyle=hachure;curveFitting=1;fontFamily=Helvetica;fontSize=30;fontColor=#777777;fillColor=none;" parent="Ik9ZMRsdfzqyXArvj2IS-1" vertex="1">
          <mxGeometry x="690" y="480" width="50" height="20" as="geometry" />
        </mxCell>
      </root>
    </mxGraphModel>
  </diagram>
</mxfile>
